<svg width="90" height="90" viewBox="0 0 90 90" fill="none" xmlns="http://www.w3.org/2000/svg">
<g id="Icon Family Fakt">
<g id="Illustration">
<path id="Vector" d="M66.3213 11.4243C66.4266 11.2205 66.4266 11.0167 66.3213 10.8129C66.2161 10.6091 66.1108 10.5072 65.9002 10.4053L47.3686 2.15149L28.7318 10.4053C28.3106 10.6091 28.1001 11.0167 28.3106 11.4243V11.5262C28.5212 11.9338 28.9424 12.1376 29.3636 11.9338L30.7324 11.3224V22.1237C30.7324 22.5313 31.0483 22.9389 31.5747 22.9389C32.1012 22.9389 32.4171 22.6332 32.4171 22.1237V10.6091L47.3686 3.98567L61.899 10.4053V28.2376C61.899 28.6452 62.2149 29.0528 62.7414 29.0528C63.2679 29.0528 63.5837 28.7471 63.5837 28.2376V11.1186L65.2684 11.8319C65.5843 12.1376 66.1108 11.9338 66.3213 11.4243Z" fill="#C62331"/>
<path id="Vector_2" d="M40.209 12.3412V25.9956H54.3182V12.3412H40.209ZM46.5266 24.3653H41.8937V13.8697H46.5266V24.3653ZM52.7388 24.3653H48.1059V13.8697H52.7388V24.3653Z" fill="#C62331"/>
<path id="Vector_3" d="M82.2209 61.4566C81.7998 59.3167 81.2733 57.075 80.7468 54.4256C80.6415 53.9161 80.5362 53.3047 81.3786 52.8971C82.1156 52.5914 82.4315 51.8781 82.7474 51.0629V49.7382C82.4315 48.7193 82.3262 47.7003 82.2209 46.7832C82.1156 46.3756 82.1156 45.968 82.0103 45.5604C81.6945 43.8281 81.4839 41.9939 81.168 40.2616L81.0627 39.854C80.8521 38.1218 80.5362 36.4914 80.2204 34.7591C80.0098 33.3325 79.1674 32.2116 77.6933 31.6002C77.0616 31.2945 76.3245 30.9888 75.5875 30.785C75.3769 30.6832 75.061 30.5813 74.9557 30.2756C74.8504 29.9699 75.061 29.6642 75.1663 29.5623C75.5875 28.9509 75.7981 28.2376 75.7981 27.3205V26.1996C75.7981 25.4863 75.7981 24.773 75.7981 23.9578C75.7981 21.716 74.2187 20.2895 71.9022 20.2895C71.7969 20.2895 71.5863 20.2895 71.4811 20.2895C70.8493 20.2895 70.3228 20.2895 69.6911 20.3914C68.217 20.799 67.1641 22.0217 67.0588 23.3464C66.9535 24.6711 66.9535 26.1996 67.0588 28.1357C67.0588 28.7471 67.3746 29.2566 67.6905 29.7661C67.7958 29.868 68.0064 30.1737 67.9011 30.4794C67.7958 30.785 67.4799 30.8869 67.3746 30.9888C67.0588 31.0907 66.6376 31.1926 66.3217 31.3964C65.9005 31.6002 65.4794 31.7021 64.9529 31.9059C63.5841 32.3135 62.6365 33.2306 62.11 34.6572C61.1624 37.2047 60.2147 39.6503 59.1618 42.1977C58.53 43.93 57.793 45.6623 57.1612 47.3946C56.9507 48.006 56.6348 48.6174 56.2136 49.1269C55.5818 50.0439 54.9501 50.8591 54.3183 51.7762L54.213 51.8781C53.7919 52.5914 53.2654 53.2028 52.8442 53.9161C52.8442 53.9161 52.8442 54.018 52.7389 54.018C52.6336 54.2218 52.4231 54.4256 52.1072 54.6294L51.5807 54.8332V53.7123C51.5807 53.3047 51.5807 52.999 51.5807 52.5914C51.5807 50.0439 49.5802 48.1079 47.0531 48.1079C44.5261 48.1079 42.5255 50.1458 42.5255 52.6933C42.5255 52.999 42.5255 53.2028 42.5255 53.5085V54.3237H42.1044C41.6832 54.3237 41.4726 54.018 41.3673 53.8142V53.7123C40.9461 53.2028 40.6303 52.6933 40.2091 52.1838L40.1038 52.0819C39.3667 51.0629 38.5244 49.942 37.7874 48.8212C37.1556 48.006 36.8397 47.1908 36.5238 46.0699C36.1027 44.1338 35.5762 42.1977 35.155 40.3635C34.3127 37.0009 33.5756 33.5363 32.7333 30.0718C32.3121 28.1357 30.101 25.8939 27.3634 25.5882C26.8369 25.4863 26.3104 25.4863 25.6787 25.4863C25.3628 25.4863 25.1522 25.4863 24.8363 25.4863H24.3099L24.5205 24.9768C25.2575 23.3464 25.1522 21.6141 25.0469 19.9838C25.0469 19.6781 25.0469 19.3724 25.0469 19.0667C24.9416 17.3344 23.7834 16.0097 21.8881 15.5002C21.7828 15.5002 21.6776 15.3983 21.5723 15.3983H19.4664C19.2558 15.5002 19.0452 15.6021 18.9399 15.6021C18.8347 15.6021 18.8347 15.6021 18.7294 15.704C17.0447 16.4173 16.097 17.5382 15.9917 19.2705C15.8865 20.2895 15.9917 21.3085 15.9917 22.2255V22.3274C15.9917 22.6331 15.9917 23.0407 15.9917 23.3464C15.9917 23.754 16.097 24.1616 16.2023 24.4673C16.3076 24.773 16.5182 25.0787 16.3076 25.3844C16.097 25.6901 15.6759 25.6901 15.36 25.6901C13.8859 25.6901 12.3065 25.5882 10.9377 26.3015C9.04242 27.2186 7.77891 28.7471 7.35773 30.785C7.35773 30.8869 7.25244 30.9888 7.25244 31.0907V31.1926V33.1287C7.46303 34.1477 7.56832 35.1667 7.67361 36.1857C7.67361 36.5933 7.77891 37.1028 7.77891 37.5104C7.98949 39.2427 8.20008 40.873 8.41066 42.6053V42.8091C8.72654 45.1528 8.93713 47.5984 9.253 49.942C9.46359 51.7762 10.6218 53.1009 12.5171 53.7123C13.2541 53.9161 13.3594 54.3237 13.4647 54.9351L13.57 57.5845C13.9912 65.125 14.4124 72.9712 14.9388 80.7155C15.0441 81.9383 14.9388 83.1611 13.57 84.1801C13.2541 84.3839 12.9383 84.7915 12.7277 85.0972C12.6224 85.1991 12.5171 85.4029 12.3065 85.5048C11.8853 86.0143 11.78 86.4219 11.9906 87.0332C12.2012 87.5427 12.6224 87.8484 13.3594 87.8484H26.521C27.1528 87.8484 27.574 87.5427 27.8898 87.0332C28.1004 86.5238 28.1004 86.0143 27.574 85.5048C26.8369 84.7915 26.2051 84.0782 25.4681 83.3649C25.6787 82.5497 25.5734 82.1421 25.5734 81.6326C25.5734 80.9193 25.6787 80.206 25.6787 79.5946V79.0851C25.6787 78.9832 25.8893 74.9073 25.9946 72.9712V72.5636C25.9946 72.0541 25.9946 71.7484 25.9946 71.6465L27.8898 36.6952L28.5216 37.6123C28.5216 37.7142 28.6269 37.7142 28.6269 37.7142C28.7322 37.8161 28.7322 37.8161 28.7322 37.918L32.8386 48.1079C32.9439 48.3117 33.0492 48.5155 33.1545 48.8212L34.7339 51.6743C36.8397 55.7503 39.0509 59.7243 41.262 63.8003C41.6832 64.5136 41.8938 65.3288 41.8938 66.144C41.8938 67.7743 41.8938 69.4047 41.8938 71.137C41.8938 72.3598 41.8938 73.5826 41.8938 74.9073C41.8938 75.7225 42.1044 76.232 42.5255 76.5377C42.9467 76.8433 42.9467 77.2509 42.9467 77.4547L43.1573 79.3908C43.3679 81.4288 43.5785 83.5687 43.789 85.7085C43.8943 86.6256 44.3155 87.1351 45.2631 87.4408H49.4749C50.6331 87.1351 50.949 86.3199 51.0543 85.1991C51.3701 83.263 51.686 81.225 52.0019 79.2889C52.1072 78.4737 52.2125 77.7604 52.4231 76.9453V76.8434C52.4231 76.7415 52.4231 76.5377 52.6336 76.3339C53.1601 75.7225 53.1601 75.0092 53.1601 74.194C53.1601 73.9902 53.1601 73.8883 53.1601 73.7864V72.7674C53.1601 70.5256 53.1601 68.2838 53.1601 66.0421C53.1601 65.2269 53.3707 64.5136 53.6866 63.8003C54.5289 62.068 55.4766 60.3357 56.3189 58.6035L56.5295 58.1959C58.1089 55.037 59.6883 51.8781 61.3729 48.7193C61.6888 48.1079 62.11 47.5984 62.4259 46.987C62.7418 46.5794 63.0576 46.0699 63.3735 45.5604L64.637 43.3186L62.4259 53.1009C62.4259 53.2028 61.7941 56.1579 61.2677 58.2977L61.1624 58.6035C60.9518 59.5205 60.7412 60.4376 60.5306 61.3547C60.32 62.4756 60.6359 63.087 61.7941 63.4946C62.9523 63.9022 64.0053 64.3098 65.1635 64.5136C65.6899 64.6155 66.0058 64.9212 66.0058 65.4307C66.3217 70.4237 66.7429 75.8244 67.1641 81.9383C67.1641 82.3459 67.0588 82.6516 66.8482 82.9573C66.5323 83.263 66.2164 83.6706 65.9005 84.0782L65.5847 84.7915C65.0582 85.4029 64.8476 86.0142 64.9529 86.4218C65.0582 86.8294 65.3741 87.237 66.1111 87.5427H76.851C77.588 87.1351 77.9039 86.8294 78.0092 86.4218C78.1145 86.0142 77.9039 85.5048 77.3775 84.7915C77.2722 84.6896 77.1669 84.4858 77.0616 84.3839C76.7457 84.0782 76.5351 83.6706 76.2192 83.4668C75.7981 83.0592 75.5875 82.5497 75.6928 81.8364C76.1139 76.1301 76.5351 70.9332 76.851 65.8383C76.851 65.125 77.2722 64.8193 77.9039 64.6155C79.0621 64.4117 80.2204 63.9022 81.0627 63.5965C82.1156 63.1889 82.4315 62.5775 82.2209 61.4566ZM80.1151 42.2996C80.3257 43.8281 80.5362 45.3566 80.8521 46.7832L81.168 49.025C81.2733 49.4325 81.2733 49.8401 81.3786 50.1458C81.3786 50.5534 81.3786 51.0629 80.8521 51.5724L80.3257 51.98L79.7992 49.6363C79.4833 48.3117 79.2727 47.0889 78.9568 45.8661V45.6623C78.7463 44.6433 78.5357 43.6243 78.3251 42.6053V42.5034C78.2198 42.2996 78.2198 42.0958 78.3251 41.7901C78.4304 41.5863 78.641 41.4844 78.9568 41.4844C79.1674 41.3825 80.0098 41.2806 80.1151 42.2996ZM68.7434 25.2825C68.7434 24.8749 68.7434 24.3654 68.7434 23.9578C68.8487 22.6331 69.6911 21.8179 71.0599 21.8179C72.4287 21.8179 73.3763 21.8179 73.9028 22.4293C74.4293 22.9388 74.6398 23.8559 74.6398 25.1806V25.8939C74.6398 26.4034 74.6398 27.0148 74.6398 27.6262C74.6398 29.1547 73.7975 29.9699 72.2181 29.9699C71.9022 29.9699 71.5863 29.9699 71.2705 29.9699C69.6911 29.9699 68.7434 29.1547 68.7434 27.6262C68.7434 27.2186 68.7434 26.9129 68.7434 26.5053V25.8939V25.2825ZM44.4208 52.2857C44.4208 50.6553 45.7896 49.3306 47.4743 49.3306C49.159 49.3306 50.5278 50.6553 50.6331 52.1838C50.6331 52.4895 50.6331 52.8971 50.6331 53.2028V53.6104V54.1199C50.6331 54.4256 50.6331 54.8332 50.6331 55.1389C50.5278 56.8712 49.2643 58.094 47.5796 58.094C45.8949 58.094 44.5261 56.7693 44.4208 55.1389C44.4208 54.2218 44.4208 53.3047 44.4208 52.2857ZM18.0976 17.8439C18.6241 16.6211 19.6372 16.2304 21.4272 16.4342C22.6907 16.638 23.7436 17.657 23.7436 18.8798C23.8489 20.2045 23.8489 21.5292 23.7436 22.7519C23.6383 24.2804 22.8358 24.9768 21.0458 24.9768C19.9929 24.9768 19.1505 24.773 18.6241 24.2635C18.0976 23.754 17.7817 23.0407 17.7817 22.0217V20.0857C17.7817 19.6781 17.7817 19.2705 17.7817 18.8629C17.887 18.5572 17.887 18.1496 18.0976 17.8439ZM13.57 51.5724L13.3594 51.8781L13.0435 51.6743C11.9906 51.1648 11.3589 50.3496 11.1483 49.2287C10.9377 47.7003 10.7271 46.0699 10.6218 44.6433L10.5165 43.4205C10.4112 42.911 10.4112 42.4015 10.3059 41.892V41.6882C10.2006 40.873 10.0953 39.8541 9.88476 38.8351C9.88476 38.6313 9.77947 38.2237 9.99005 38.0199C10.3059 37.8161 10.6218 37.8161 10.8324 37.8161C12.7277 37.8161 12.9383 37.918 13.0435 39.7522C13.0435 39.8541 13.0435 40.3635 13.1488 40.9749C13.2541 42.8091 13.4647 47.1908 13.57 47.5984L13.7806 50.6553V50.7572C13.6753 51.0629 13.7806 51.2667 13.57 51.5724ZM18.2029 86.0143H13.7806L15.0441 84.7915C15.4653 84.3839 15.8865 83.9763 16.2023 83.5687C16.5182 83.263 16.8341 83.263 17.15 83.263H17.2553H17.9923H18.3082C19.5717 83.263 19.7823 83.4668 19.7823 84.6896C19.677 85.8105 19.5717 86.0143 18.2029 86.0143ZM25.9946 84.8934C26.0999 84.9953 26.3104 85.1991 26.4157 85.301L27.0475 85.9123H24.8363C23.8887 85.9123 22.9411 85.9123 21.9934 85.9123C21.1511 85.9123 21.1511 85.301 21.1511 85.0972C21.1511 84.1801 21.0458 83.7725 21.3617 83.4668C21.6776 83.1611 22.0987 83.1611 22.8358 83.0592H22.9411C23.994 82.9573 24.731 83.3649 25.2575 84.0782C25.5734 84.4858 25.784 84.6896 25.9946 84.8934ZM25.784 50.2477C25.4681 55.9541 24.9416 66.2459 24.5205 73.8883L24.3099 77.3528C24.2046 78.5756 24.0993 79.6965 24.0993 80.8174C24.0993 81.225 23.994 81.7345 23.1517 81.7345H23.0464C22.204 81.7345 21.7828 81.7345 21.467 81.4288C21.1511 81.1231 21.1511 80.7155 21.1511 79.9003L21.0458 56.7693V56.6674C21.0458 56.5655 21.0458 56.4636 21.0458 56.3617C20.9405 55.9541 20.8352 55.7503 20.414 55.7503C19.9929 55.7503 19.7823 55.8522 19.677 56.2598C19.677 56.4636 19.677 56.6674 19.677 56.8712V60.3357C19.677 66.9592 19.7823 73.7864 19.7823 80.5117C19.7823 80.9193 19.7823 81.3269 19.4664 81.5307C19.2558 81.7345 19.0452 81.8364 18.6241 81.8364H18.5188H18.4135C17.0447 81.7345 16.8341 81.6326 16.7288 80.206C16.5182 76.232 16.3076 72.2579 16.097 68.2838L15.5706 58.2977C15.36 55.8522 15.2547 53.1009 15.0441 50.3496C15.0441 50.0439 15.0441 49.7382 15.2547 49.4325C15.4653 49.2287 15.6759 49.1269 16.2023 49.1269C19.2558 49.1269 22.204 49.1269 24.8363 49.1269C25.1522 49.1269 25.4681 49.1269 25.6787 49.3306C25.784 49.6363 25.784 49.942 25.784 50.2477ZM29.8904 35.7781C29.2586 35.5743 29.1533 34.9629 28.9428 34.3515C28.8375 34.1477 28.8375 33.9439 28.7322 33.7401C28.2057 32.5173 27.8898 32.5173 27.4687 32.5173C26.9422 32.6192 26.7316 32.823 26.6263 34.0458L26.521 37.8161C26.4157 40.6692 26.2051 43.7262 26.0999 46.5794C26.0999 47.2927 25.8893 47.8022 24.8363 47.8022C21.8881 47.7003 18.9399 47.8022 16.3076 47.8022H16.2023C15.8865 47.8022 15.1494 47.8022 14.9388 46.987V46.8851C14.9388 46.7832 14.9388 46.6813 14.9388 46.4775C14.9388 46.2737 14.9388 46.0699 14.9388 45.968C14.8335 43.93 14.6229 40.873 14.6229 40.5673L14.2018 32.9249C14.2018 32.823 14.2018 32.7211 14.2018 32.6192C14.2018 32.2116 13.9912 31.804 13.3594 31.804C13.1488 31.804 12.7277 31.804 12.7277 32.7211C12.7277 33.5363 12.833 34.4534 12.833 35.4724C12.833 35.5743 12.833 35.9819 12.6224 36.1857C12.4118 36.3895 12.2012 36.3895 11.8853 36.3895C9.77947 36.4914 9.56888 36.2876 9.3583 34.2496C9.253 33.5363 9.14771 32.823 9.14771 32.2116C8.93713 30.6832 9.3583 29.2566 10.3059 28.1357C11.2536 27.1167 12.5171 26.5053 13.9912 26.5053C17.5711 26.4034 21.2564 26.4034 24.8363 26.5053L26.6263 26.6723C28.8375 26.6723 30.5222 27.7702 31.2592 30.0718C31.6292 31.2271 32.1917 32.5173 32.5076 33.5363L32.6129 34.0458C32.8234 34.861 32.4174 35.1667 32.2068 35.2686C31.9963 35.3705 31.7857 35.4724 31.5751 35.5743C30.9433 35.6762 30.4169 35.88 29.8904 35.7781ZM34.9445 46.987C34.8392 46.987 34.7339 46.987 34.6286 46.987C34.418 46.987 34.2074 46.8851 33.9968 46.6813C33.8915 46.5794 33.8915 46.3756 33.7862 46.2737L33.9968 46.0699L33.7862 46.1718L32.9439 44.0319C32.2068 42.1977 31.3645 40.2616 30.6274 38.3256C30.5222 38.0199 30.4169 37.7142 30.5222 37.5104C30.6274 37.3066 30.838 37.1028 31.2592 37.0009H31.3645C32.3121 36.6952 32.7333 36.4914 33.1545 36.6952C33.5756 36.899 33.6809 37.3066 33.8915 38.3256C34.3127 40.3635 34.8392 42.2996 35.2603 44.3376L35.5762 45.8661C35.5762 45.968 35.5762 46.0699 35.6815 46.1718V46.2737C35.7868 46.4775 35.6815 46.6813 35.5762 46.7832C35.4709 46.7832 35.2603 46.8851 34.9445 46.987ZM46.8425 80.4098V80.6136C46.8425 80.9193 46.8425 81.225 46.8425 81.5307V82.3459C46.8425 83.263 46.8425 84.282 46.8425 85.1991V85.301C46.8425 85.5048 46.8425 85.7085 46.632 85.9123C46.5267 86.0142 46.3161 86.1161 46.1055 86.1161C45.3684 86.1161 45.2631 85.5048 45.2631 85.301C45.0526 82.9573 44.842 80.3079 44.5261 77.8623C44.5261 77.6585 44.5261 77.2509 44.7367 77.0471C44.9473 76.8433 45.1579 76.8434 45.4737 76.8434C45.4737 76.8434 45.579 76.8434 45.6843 76.8434C45.8949 76.8434 46.2108 76.8433 46.5267 77.0471C46.7372 77.2509 46.8425 77.4547 46.7372 77.8623C46.8425 78.6775 46.8425 79.5946 46.8425 80.4098ZM50.8437 77.9642C50.6331 79.4927 50.3172 81.0212 50.1066 82.5497L49.6854 85.4029C49.6854 85.6067 49.5802 85.8105 49.3696 86.0143C49.2643 86.1161 49.159 86.1161 48.9484 86.1161H48.8431C48.5272 86.1161 48.2113 85.9124 48.3166 85.301V85.1991C48.3166 84.282 48.3166 83.4668 48.3166 82.5497V80.5117C48.3166 79.5946 48.3166 78.7794 48.3166 77.9642C48.3166 77.7604 48.3166 77.3528 48.6325 77.149C48.8431 76.9452 49.0537 76.9453 49.4749 76.9453C49.5802 76.9453 49.7907 76.9453 49.896 76.9453C50.3172 76.9453 50.5278 76.9452 50.7384 77.149C50.8437 77.3528 50.8437 77.6585 50.8437 77.9642ZM51.686 74.6016C51.686 74.7035 51.686 75.0092 51.4754 75.3149C51.3701 75.4168 51.0543 75.5187 50.8437 75.5187C50.2119 75.5187 49.7907 75.5187 49.2643 75.5187C49.0537 75.5187 48.8431 75.5187 48.6325 75.3149C48.4219 75.1111 48.4219 74.8054 48.4219 74.6016C48.4219 73.9902 48.4219 73.4807 48.4219 72.9712C48.4219 72.5636 48.1061 72.2579 47.6849 72.2579C47.2637 72.2579 46.9478 72.5636 46.9478 72.9712C46.9478 73.4807 46.9478 73.9902 46.9478 74.7035C46.9478 75.0092 46.8425 75.213 46.7372 75.3149C46.632 75.4168 46.4214 75.5187 46.1055 75.5187C45.6843 75.5187 45.2631 75.5187 45.0526 75.5187C44.6314 75.5187 44.2102 75.5187 43.9996 75.213C43.5785 74.9073 43.5785 74.2959 43.5785 73.175V72.4617C43.5785 71.9522 43.5785 71.3408 43.5785 70.8313C43.5785 70.5256 43.6838 70.3218 43.789 70.118C43.9996 69.9142 44.4208 69.9142 44.5261 69.9142C45.2631 69.9142 46.0002 69.9142 46.8425 69.9142H47.7902H48.7378C49.4749 69.9142 50.2119 69.9142 51.0543 69.9142C51.2648 69.9142 51.5807 69.9142 51.7913 70.118C51.8966 70.2199 52.0019 70.5256 52.0019 70.7294C51.686 71.9522 51.686 73.175 51.686 74.6016ZM55.5818 56.7693C55.266 57.3807 55.0554 57.8902 54.7395 58.5015C54.0025 59.9281 53.3707 61.3547 52.5284 62.6794C51.7913 64.0041 51.4754 65.3288 51.5807 66.6535C51.5807 67.3667 51.5807 67.7743 51.3701 68.08C51.0543 68.3857 50.6331 68.3857 49.7907 68.3857H48.3166C47.0531 68.3857 45.7896 68.3857 44.4208 68.3857C44.1049 68.3857 43.789 68.3857 43.5785 68.08C43.3679 67.8762 43.3679 67.6725 43.3679 67.2649C43.6838 65.0231 42.8414 63.1889 41.8938 61.4566C40.3144 58.6034 38.735 55.7503 37.2609 52.8971V52.7952C36.6291 51.6743 36.1027 50.5534 35.4709 49.4325C35.3656 49.3307 35.3656 49.1269 35.2603 49.025L34.9445 48.4136L35.2603 48.2098C35.8921 47.8022 36.4186 47.9041 36.8397 48.5155C38.3138 50.6553 39.8932 52.8971 41.4726 55.037L42.315 56.2598C43.6838 58.1959 45.6843 59.2148 47.6849 59.2148C49.7907 59.2148 51.7913 58.094 53.0548 56.1579L54.7395 53.7123C55.6871 52.2857 56.7401 50.961 57.6877 49.5344C57.6877 49.5344 57.6877 49.5344 57.6877 49.4325C57.793 49.2287 58.0036 48.8212 58.7406 48.9231L59.2671 49.025L55.5818 56.7693ZM63.3735 42.1977L62.5312 43.8281C62.11 44.6433 61.6888 45.4585 61.1624 46.2737C60.8465 46.7832 60.5306 47.2927 59.583 47.7003L58.7406 48.1079L62.0047 39.7522H62.3206C62.4259 39.7522 62.5312 39.7522 62.6365 39.854C64.0053 40.6692 64.1106 40.873 63.3735 42.1977ZM70.744 84.9953C70.744 85.0972 70.744 85.301 70.744 85.4029C70.744 85.7085 70.6387 85.8104 70.5334 85.9123C70.3228 86.1161 70.007 86.1161 69.7964 86.1161H68.6382H66.2164L66.7429 85.5048C66.9535 85.301 67.0588 85.0972 67.1641 84.8934C67.4799 84.4858 67.7958 84.0782 68.217 83.7725C68.8487 83.263 69.6911 83.3649 70.2175 83.6706C70.9546 83.9763 70.8493 84.5877 70.744 84.9953ZM70.744 74.194V75.6206C70.744 77.4547 70.744 79.2889 70.744 81.1231C70.744 81.4288 70.744 81.7345 70.5334 81.9383C70.3228 82.1421 70.1123 82.1421 69.7964 82.1421C69.2699 82.1421 68.6382 82.0402 68.6382 81.1231C68.3223 76.1301 68.0064 71.2389 67.5852 66.3478C67.5852 66.0421 67.5852 65.6345 67.7958 65.4307C68.0064 65.2269 68.4276 65.2269 68.7434 65.2269H68.8487C70.6387 65.4307 70.744 65.5326 70.744 67.3668V71.8503V74.194ZM72.1128 75.8244V73.3788V71.7484C72.1128 70.0161 72.1128 68.2838 72.1128 66.5516C72.1128 66.2459 72.1128 65.5326 73.0604 65.4307H73.1657C74.2187 65.3288 74.6398 65.3288 74.9557 65.6345C75.2716 65.9402 75.2716 66.4497 75.1663 67.4687C75.061 68.9971 74.9557 70.6275 74.8504 72.156V72.2579C74.6398 75.213 74.4293 78.3718 74.2187 81.4288C74.1134 82.3459 73.4816 82.3459 73.271 82.3459C73.1657 82.3459 73.1657 82.3459 73.0604 82.3459C72.9552 82.3459 72.9552 82.3459 72.8499 82.3459C72.6393 82.3459 72.4287 82.244 72.2181 82.1421C72.0075 81.9383 71.9022 81.6326 71.9022 81.4288C72.1128 79.3908 72.1128 77.5566 72.1128 75.8244ZM76.6404 86.1161H74.9557C74.324 86.1161 73.6922 86.1161 73.1657 86.1161C73.0604 86.1161 72.7446 86.1161 72.4287 85.9123C72.3234 85.8104 72.2181 85.5048 72.2181 85.301C72.2181 85.1991 72.2181 85.0972 72.2181 84.9953C72.2181 84.8934 72.2181 84.7915 72.2181 84.6896C72.2181 84.3839 72.1128 83.8744 72.6393 83.5687C73.3763 83.1611 74.6398 83.5687 75.061 84.1801C75.2716 84.3839 75.4822 84.6896 75.6928 84.8934L76.6404 86.1161ZM80.0098 62.5775C77.1669 63.5965 74.324 64.106 71.4811 64.106C68.6381 64.106 65.69 63.5965 62.847 62.5775C62.4259 62.3737 61.8994 62.1699 62.11 61.3547C62.11 61.2528 62.11 61.1509 62.2153 61.049V60.8452C62.2153 60.7433 62.2153 60.7433 62.3206 60.7433V60.6414C62.4259 59.9281 63.1629 56.6674 63.7947 53.9161V53.7123C64.1106 52.0819 64.4264 50.6553 64.5317 50.2477L66.8482 39.5484C66.8482 39.4465 66.9535 39.2427 66.9535 39.1408C67.0588 38.3256 66.5323 38.1218 66.427 38.1218C66.0058 38.0199 65.5847 38.1218 65.3741 38.6313C65.2688 38.937 65.0582 39.1408 64.7423 39.2427C64.4264 39.3446 64.1106 39.2427 63.7947 39.0389C62.847 38.5294 62.6365 37.918 63.1629 36.899C63.3735 36.3895 63.5841 35.88 63.7947 35.3705L64.0053 34.861C64.3211 34.0458 64.8476 33.5363 65.69 33.2306C66.1111 33.1287 66.5323 32.9249 66.9535 32.823H67.0588C68.217 32.4154 69.4805 31.9059 70.6387 31.6002C71.6916 31.2945 72.7446 31.2945 73.6922 31.7021C74.324 31.9059 74.8504 32.2116 75.4822 32.4154C76.1139 32.6192 76.7457 32.9249 77.2722 33.1287C78.3251 33.5363 78.9568 34.2496 79.0621 35.3705C79.1674 36.0838 79.2727 36.7971 79.378 37.5104V37.6123C79.4833 38.1218 79.5886 38.7332 79.5886 39.2427V39.3446C79.5886 39.5484 79.6939 39.7522 79.4833 40.0578C79.378 40.1597 79.1674 40.2616 78.9568 40.2616C78.9568 40.2616 78.8516 40.2616 78.7463 40.2616C78.4304 40.2616 77.7986 40.3635 77.588 39.6503C77.588 39.4465 77.4827 39.2427 77.4827 39.0389C77.3775 38.7332 77.3774 38.4275 77.2722 38.2237C77.1669 37.918 76.9563 37.4085 76.4298 37.5104C76.2192 37.5104 76.1139 37.6123 76.0087 37.8161C75.9034 38.0199 75.9034 38.2237 75.9034 38.5294C77.1669 44.4395 78.3251 50.3496 79.5886 56.2598L79.7992 57.2788C80.1151 58.6034 80.3257 60.03 80.6415 61.3547C80.9574 61.8642 80.6415 62.2718 80.0098 62.5775Z" fill="#204E70"/>
</g>
</g>
</svg>
