<svg width="90" height="90" viewBox="0 0 90 90" fill="none" xmlns="http://www.w3.org/2000/svg">
<g id="Icon Hause Fakt">
<g id="Illustration">
<path id="Vector" d="M75.6235 83.6443C75.4188 83.6443 75.1118 83.6443 74.8048 83.6443H74.7025C64.9809 83.6443 46.9705 83.6443 37.2489 83.6443H1.43265C1.33032 83.6443 1.12565 83.6443 1.02332 83.6443C0.409329 83.6443 0 84.0535 0 84.565C0 85.0766 0.409329 85.3835 0.920989 85.4858C1.02332 85.4858 1.12565 85.4858 1.33032 85.4858H1.53498H11.6659C31.9276 85.4858 56.4873 85.4858 74.9071 85.4858C75.1118 85.4858 75.4188 85.4858 75.7258 85.3835C76.1351 85.2812 76.4421 84.872 76.3398 84.4627C76.3398 84.0535 76.0328 83.6443 75.6235 83.6443Z" fill="#204E7F"/>
<path id="Vector_2" d="M16.8852 80.4743C20.0575 80.4743 23.2298 80.4743 26.2998 80.4743C27.3231 80.4743 27.6301 80.1676 27.6301 79.145C27.6301 77.918 27.6301 76.5887 27.6301 75.3616V71.5782C27.6301 70.2489 27.6301 68.9196 27.6301 67.488C27.6301 66.4655 27.3231 66.2609 26.4021 66.1587C23.2298 66.1587 19.9552 66.1587 16.8852 66.1587C15.9642 66.1587 15.6572 66.4655 15.6572 67.3858C15.6572 71.5782 15.6572 75.4639 15.6572 79.2473C15.6572 80.2698 15.8619 80.4743 16.8852 80.4743ZM17.8062 68.5105C18.1132 68.2038 18.6249 68.1015 18.9319 68.1015C20.9785 68.1015 22.7181 68.1015 24.2531 68.1015C24.7648 68.1015 25.0718 68.2038 25.3788 68.5105C25.6858 68.8173 25.7881 69.3286 25.7881 69.6353C25.7881 70.5556 25.7881 71.4759 25.7881 72.294V73.4188V74.5436C25.7881 75.4639 25.7881 76.3842 25.7881 77.2022C25.7881 77.509 25.7881 78.0202 25.3788 78.327C25.1741 78.5315 24.7648 78.736 24.3555 78.736C22.6158 78.736 20.8762 78.736 18.9319 78.736C18.6249 78.736 18.2155 78.736 17.9085 78.327C17.6015 78.0202 17.4992 77.509 17.4992 77.2022C17.4992 74.3391 17.4992 71.885 17.4992 69.5331C17.3969 69.4308 17.3969 68.9196 17.8062 68.5105Z" fill="#204E7F"/>
<path id="Vector_3" d="M26.1967 47.446H21.6941H16.8845C15.7589 47.446 15.5542 47.6506 15.5542 48.7754C15.5542 50.1047 15.5542 51.3317 15.5542 52.661V56.3422C15.5542 57.6715 15.5542 59.1031 15.5542 60.4324C15.5542 61.4549 15.7589 61.6594 16.7822 61.6594C19.9545 61.6594 23.1268 61.6594 26.1967 61.6594C27.2201 61.6594 27.4247 61.4549 27.4247 60.3301C27.4247 56.4444 27.4247 52.5588 27.4247 48.7754C27.6294 47.7528 27.3224 47.446 26.1967 47.446ZM25.7874 54.6039V55.7287C25.7874 56.649 25.7874 57.5692 25.7874 58.3873C25.7874 58.694 25.7874 59.2053 25.3781 59.5121C25.1734 59.7166 24.8664 59.9211 24.3548 59.9211C22.6151 59.9211 20.8755 59.9211 18.9312 59.9211C18.4195 59.9211 18.1125 59.8188 17.9078 59.5121C17.3962 59.1031 17.3962 58.5918 17.3962 58.3873C17.3962 55.3196 17.3962 52.9678 17.3962 50.7182C17.3962 50.4114 17.3962 50.0024 17.8055 49.5934C18.1125 49.2866 18.6242 49.1844 18.9312 49.1844C20.8755 49.1844 22.6151 49.1844 24.2524 49.1844C24.5594 49.1844 25.0711 49.1844 25.3781 49.5934C25.6851 49.9002 25.7874 50.4114 25.7874 50.7182C25.7874 51.6385 25.7874 52.5588 25.7874 53.4791V54.6039Z" fill="#204E7F"/>
<path id="Vector_4" d="M56.2831 0C46.1522 0 37.8633 8.28262 37.8633 18.4058C37.8633 28.529 46.1522 36.8116 56.2831 36.8116C66.414 36.8116 74.7029 28.529 74.7029 18.4058C74.7029 8.28262 66.414 0 56.2831 0ZM56.2831 34.9711C47.0732 34.9711 39.6029 27.5065 39.6029 18.3036C39.6029 9.10066 47.0732 1.73833 56.2831 1.73833C65.493 1.73833 72.9632 9.20291 72.9632 18.4058C72.9632 27.6087 65.493 34.9711 56.2831 34.9711Z" fill="#C51724"/>
<path id="Vector_5" d="M67.9486 16.5654C67.9486 15.8497 67.9486 15.0316 67.9486 14.3158C67.9486 13.6001 67.9486 12.782 67.9486 12.0662C67.9486 11.3505 67.6416 11.0437 66.8229 11.0437C66.0043 11.0437 65.1856 11.0437 64.367 11.0437H63.3436C62.6273 11.0437 62.218 11.0437 62.1157 11.146C62.0133 11.2482 62.0133 11.6572 62.0133 12.373C62.0133 12.5775 62.0133 12.6798 62.1157 12.6798C62.1157 12.6798 62.218 12.6798 62.4227 12.6798C62.9343 12.6798 63.3436 12.6798 63.8553 12.6798H64.981L64.5716 13.191C64.5716 13.191 64.4693 13.191 64.4693 13.2933C61.0923 16.6677 60.4783 17.2812 59.8644 17.8948C59.2504 18.5083 58.7387 19.0196 55.1571 22.5985C55.0547 22.7007 54.8501 22.9052 54.6454 22.9052C54.4408 22.9052 54.2361 22.7007 54.1338 22.5985L50.6545 19.1218C49.7335 18.2015 49.5288 18.2015 48.6078 19.1218C47.5845 20.1444 46.9705 20.7579 46.5612 21.1669L46.2542 21.4737C45.9472 21.8827 45.3332 22.394 44.3099 23.5188C44.2075 23.621 44.1052 23.7233 44.0029 23.8255C43.7982 24.03 43.4912 24.2345 43.4912 24.4391C43.4912 24.5413 43.6959 24.7458 43.9005 24.9503C44.1052 25.0526 44.2075 25.1548 44.3099 25.3593C44.4122 25.4616 44.5145 25.5639 44.6169 25.5639C44.7192 25.5639 44.8215 25.4616 44.9239 25.3593C45.8449 24.4391 46.4588 23.8255 46.7658 23.5188C46.7658 23.5188 46.8682 23.4165 46.9705 23.3142C47.0728 23.212 47.0728 23.212 47.1752 23.1097C47.4822 22.803 48.0962 22.1894 49.0171 21.2692C49.2218 21.0646 49.4265 20.9624 49.6311 20.9624C49.8358 20.9624 50.0405 21.1669 50.2451 21.2692C51.2685 22.2917 51.5754 22.7007 51.7801 22.803C51.8824 22.9052 51.8824 22.9052 52.0871 23.1097C52.2918 23.3143 52.5988 23.621 53.6221 24.6436C54.1338 25.1548 54.4408 25.3593 54.6454 25.3593C54.8501 25.3593 55.1571 25.1548 55.6687 24.6436C59.2504 21.0647 59.8644 20.4511 60.4783 19.8376C61.0923 19.2241 61.8087 18.6105 65.288 15.0316L65.3903 14.9294C65.4926 14.8271 65.6973 14.6226 66.0043 14.5204L66.3113 14.4181V15.6452C66.3113 16.3609 66.3113 16.77 66.4136 16.8722C66.5159 16.9745 66.9253 16.9745 67.6416 16.9745C67.9486 16.77 67.9486 16.77 67.9486 16.5654Z" fill="#C51724"/>
<path id="Vector_6" d="M80.3307 71.4759C80.7401 68.6128 79.2051 65.7497 76.5445 64.3181C76.4421 64.3181 76.4421 64.2158 76.3398 64.2158L76.2375 64.1136V64.0113C76.2375 64.0113 76.2375 63.9091 76.3398 63.7046C77.7724 60.5347 76.6468 56.9558 73.6791 55.1152C73.3722 54.9107 73.3721 54.8084 73.3721 54.5016C73.6791 52.6611 73.2698 50.8205 72.1442 49.4912C71.0185 48.1619 69.3812 47.3438 67.5392 47.3438C65.7996 47.3438 64.0599 48.1619 63.0366 49.4912C61.9109 50.8205 61.3993 52.6611 61.8086 54.5016C61.911 54.9107 61.8086 55.0129 61.5016 55.2174C60.99 55.5242 60.4783 55.9332 60.069 56.4445L59.6596 56.9558V56.24C59.6596 52.3543 59.6596 48.4686 59.6596 44.583C59.6596 44.2762 59.6596 43.7649 60.069 43.3559C60.4783 42.9469 60.8876 42.9469 61.297 42.9469C63.0366 42.9469 64.7763 42.9469 66.4136 42.9469H66.8229C67.7439 42.9469 68.0509 42.6401 68.0509 41.8221C68.0509 40.7995 68.0509 39.6747 68.0509 38.6522V37.6296C68.0509 36.8116 67.5392 36.5048 67.1299 36.5048C66.7206 36.5048 66.2089 36.8116 66.2089 37.6296V37.8342C66.2089 38.4477 66.2089 39.0612 66.2089 39.6747C66.2089 39.8792 66.2089 40.2883 65.7996 40.6973C65.5949 40.9018 65.2879 41.1063 64.8786 41.1063C63.4459 41.1063 45.7425 41.1063 44.6168 41.1063C44.4122 41.1063 43.9005 41.1063 43.5935 40.6973C43.1842 40.2883 43.1842 39.777 43.1842 39.6747V35.0733C43.1842 34.7665 43.0818 34.4598 42.7748 34.2552C42.4678 34.0507 42.1608 34.0507 41.8539 34.153C41.5469 34.2552 41.3422 34.562 41.3422 34.971C41.3422 35.0733 41.3422 36.1981 41.3422 37.2206C41.3422 38.3454 41.3422 39.368 41.3422 39.4702C41.3422 39.777 41.3422 40.2883 40.9329 40.595C40.5235 41.004 40.0119 41.004 39.8072 41.004C38.6816 41.004 37.5559 41.004 36.5326 41.004H36.4302C36.0209 41.004 35.6116 40.9018 35.4069 40.595C34.9976 40.186 34.9976 39.6747 34.9976 39.368C34.9976 38.5499 34.9976 35.38 34.9976 31.6989C34.9976 26.4839 34.9976 19.9396 34.9976 18.508L34.6906 18.3035C34.2813 18.099 33.9743 18.099 33.5649 18.3035C22.5131 23.8253 11.5635 29.0403 0.716325 34.3575C0.204664 34.562 0 34.8688 0 35.38C0 36.4026 0 37.4251 0 38.4477V38.8567C0 39.777 0 40.6973 0 41.5153C0 42.4356 0.306997 42.7424 1.22799 42.7424H2.35364C3.68396 42.7424 5.11661 42.7424 6.44693 42.7424C6.85625 42.7424 7.47025 42.7424 7.87958 43.1514C8.2889 43.5604 8.39124 44.0717 8.39124 44.583C8.39124 53.8881 8.39124 63.2955 8.39124 72.3962V78.736V78.9405C8.39124 79.145 8.39124 79.3495 8.39124 79.554C8.39124 79.963 8.80056 80.3721 9.20989 80.3721C9.61922 80.3721 10.0286 80.1676 10.1309 79.6563C10.2332 79.4518 10.2332 79.2473 10.2332 78.9405V78.736V74.1345C10.2332 64.4203 10.2332 54.2971 10.2332 44.3784C10.2332 43.9694 10.2332 43.4582 10.6425 43.0491C11.0519 42.6401 11.5635 42.6401 11.9729 42.6401C18.8291 42.6401 25.276 42.6401 31.5183 42.6401C31.9276 42.6401 32.4393 42.6401 32.8486 43.0491C33.2579 43.4582 33.2579 43.9694 33.2579 44.3784C33.2579 48.7754 33.2579 53.2746 33.2579 57.6715V62.5798V65.9542C33.2579 70.3511 33.2579 74.7481 33.2579 79.2473C33.2579 79.7585 33.5649 80.1675 33.9743 80.3721C34.3836 80.4743 34.7929 80.2698 35.0999 79.8608L38.0676 75.2593C40.5235 71.5782 42.9795 67.7947 45.4355 64.0113C45.6401 63.7046 45.9471 63.1933 46.5611 63.1933C47.1751 63.1933 47.5844 63.7046 47.6868 64.0113C49.2218 66.2609 50.7567 68.6128 52.1894 70.8624L52.2917 71.0669C53.0081 72.0894 53.7244 73.2142 54.4407 74.2368C55.157 75.2593 55.771 76.2819 56.4873 77.3044L58.1247 79.7585C58.3293 80.0653 58.6363 80.3721 59.2503 80.2698C59.6596 80.1676 59.8643 79.7585 59.8643 79.2473C59.8643 79.145 59.8643 79.0427 59.8643 78.9405C59.8643 78.8382 59.8643 78.6337 59.8643 78.5315V77.0999L60.2736 77.2022C61.297 77.5089 62.2179 77.6112 63.2413 77.4067C64.3669 77.2022 65.4926 76.7932 66.5159 76.0774L66.9252 75.7706V79.6563C66.9252 80.1676 67.3346 80.4743 67.7439 80.4743C68.2555 80.4743 68.5625 80.0653 68.5625 79.6563V75.8729L69.0742 76.1796C70.8138 77.4067 72.7582 77.8157 74.7025 77.3044C77.7724 76.8954 79.9214 74.6458 80.3307 71.4759ZM32.7463 40.6973C32.4393 41.004 31.9276 41.1063 31.5183 41.1063C22.0014 41.1063 12.5869 41.1063 3.47929 41.1063C3.06996 41.1063 2.5583 41.1063 2.14898 40.595C1.73965 40.186 1.73965 39.4702 1.84198 39.2657C1.84198 38.7544 1.84198 38.3454 1.84198 37.9364C1.84198 37.5274 1.84198 37.0161 2.14898 36.6071C2.5583 36.1981 3.06996 36.0958 3.58163 36.0958C6.13993 36.0958 8.69823 36.0958 11.2565 36.0958H17.3965C20.3641 36.0958 23.4341 36.0958 26.4017 36.0958C27.0157 36.0958 27.2204 35.8913 27.425 35.5846C27.6297 35.2778 27.6297 34.971 27.425 34.6643C27.2204 34.4598 27.0157 34.2552 26.4017 34.2552C22.3084 34.2552 18.2151 34.2552 14.1218 34.2552H8.49357C8.2889 34.2552 8.18657 34.153 8.18657 33.9485L8.08424 32.9259C8.08424 32.8237 8.18657 32.6192 8.2889 32.6192L26.504 23.8253C28.039 23.1095 29.6763 22.2915 31.2113 21.5757C31.5183 21.4734 32.03 21.1667 32.644 21.4734C33.1556 21.7802 33.1556 22.496 33.1556 22.8027C33.1556 28.3245 33.1556 33.8462 33.1556 39.4702C33.1556 39.8792 33.0533 40.2883 32.7463 40.6973ZM44.7192 61.7617C42.7748 64.7271 40.8305 67.6925 38.8862 70.5556L36.8396 73.6233C36.7372 73.7255 36.7372 73.8278 36.6349 73.93L35.5093 75.3616C35.4069 75.4638 35.3046 75.4638 35.2023 75.4638H35.0999C34.9976 75.4638 34.8953 75.2593 34.8953 75.1571V45.7078L35.0999 45.6055C35.3046 45.5032 35.3046 45.5032 38.0676 49.9002C38.8862 51.1272 39.7049 52.3543 40.0119 52.9678C41.5469 55.2174 42.9795 57.5693 44.5145 59.8189C45.0261 60.2279 45.2308 60.9437 44.7192 61.7617ZM47.4821 57.467C47.3798 57.7738 47.0728 58.2851 46.4588 58.2851C45.7425 58.2851 45.4355 57.7738 45.3331 57.5693C43.4912 54.7062 41.5469 51.843 39.7049 48.9799L39.5002 48.5709C38.5792 47.2416 35.9186 43.3559 35.9186 43.3559V43.2536V43.1514L36.0209 43.0491C36.1233 42.9469 36.2256 42.9469 36.8396 42.9469H55.771C55.8734 42.9469 55.9757 43.0491 56.078 43.1514L56.1804 43.4582C56.5897 44.1739 56.078 44.6852 55.9757 44.8897C52.9057 49.2867 50.1428 53.3769 47.4821 57.467ZM57.8177 73.8278C57.8177 73.93 57.7153 74.1345 57.613 74.1345L57.2037 74.2368C57.1013 74.2368 56.999 74.2368 56.8967 74.2368C56.5897 74.2368 56.1803 74.1345 55.8734 73.521C54.3384 71.2714 52.8034 68.9195 51.2684 66.5677L48.0961 61.7617C47.8914 61.455 47.4821 60.7392 47.9938 59.9211C49.9381 56.9558 51.9847 53.9904 53.8267 51.025L55.8734 47.8551C55.9757 47.7528 55.9757 47.6506 56.078 47.5483L57.1013 46.3213C57.2037 46.219 57.306 46.219 57.5107 46.219C57.613 46.219 57.7153 46.4235 57.7153 46.5258V73.8278H57.8177ZM73.1675 76.0774C71.4278 76.0774 69.7905 75.2593 68.7672 73.8278C68.6649 73.6233 68.5625 73.3165 68.5625 73.112C68.5625 70.6579 68.5625 68.306 68.5625 65.8519C68.5625 65.5451 68.6649 65.3406 68.8695 65.1361C69.7905 64.2158 70.7115 63.2955 71.6325 62.3753C71.8372 62.1707 72.1442 61.6595 71.8372 61.1482C71.7348 60.9437 71.4278 60.8414 71.2232 60.7392C71.0185 60.7392 70.7115 60.8414 70.5069 61.0459C70.0975 61.455 69.6882 61.864 69.2789 62.273L68.5625 62.9888V60.3302C68.5625 59.8189 68.4602 59.5121 68.2555 59.3076C68.1532 59.2054 67.9485 59.1031 67.6416 59.1031C67.4369 59.1031 66.8229 59.1031 66.8229 60.3302V69.0218L66.1066 68.306C65.6972 67.897 65.2879 67.488 64.8786 67.079C64.6739 66.8745 64.3669 66.7722 64.0599 66.7722C63.8553 66.7722 63.6506 66.9767 63.4459 67.1812C63.2413 67.3857 63.1389 67.7947 63.6506 68.4083L64.7763 69.5331C65.2879 70.0443 65.9019 70.6579 66.4136 71.1691C66.6182 71.3737 66.7206 71.5782 66.7206 71.8849C66.7206 72.1917 66.7206 72.4985 66.7206 72.8052C66.8229 73.4187 66.5159 74.0323 65.9019 74.6458C64.3669 76.0774 62.0133 76.5886 60.069 75.7706L59.6596 75.5661V60.2279C60.069 58.6941 61.3993 56.7513 63.1389 56.1377C63.4459 56.0355 63.6506 55.9332 63.7529 55.7287C63.8553 55.5242 63.8553 55.2174 63.6506 54.7062C63.0366 53.0701 63.4459 51.2295 64.7763 50.1047C66.0042 48.9799 67.8462 48.6731 69.3812 49.3889C70.9162 50.1047 71.9395 51.7408 71.8372 53.4791C71.8372 53.8881 71.7348 54.2971 71.5302 54.8084C71.2232 55.5242 71.4278 55.9332 72.1442 56.24C73.5768 56.8535 74.6001 58.0806 75.0095 59.5121C75.4188 60.9437 75.1118 62.4775 74.2931 63.8068C73.8838 64.3181 73.9861 64.6249 73.9861 64.8294C74.0885 65.0339 74.1908 65.2384 74.8048 65.4429C76.5444 66.0564 77.8748 67.3857 78.3864 69.2263C79.0004 71.2714 78.3864 73.3165 76.7491 74.8503C76.1351 75.4638 75.3165 75.8729 74.4978 76.0774C74.1908 75.9751 73.6791 76.0774 73.1675 76.0774Z" fill="#204E7F"/>
</g>
</g>
</svg>
