<svg width="30" height="30" viewBox="0 0 30 30" fill="none" xmlns="http://www.w3.org/2000/svg">
<g id="icon/Default">
<g id="Bullitt">
<path id="Vector" d="M27.3999 20.9941V9.46466C27.3999 7.8176 26.4609 6.34701 24.9938 5.64113L16.7192 1.64113C15.5454 1.05289 14.1957 1.05289 13.022 1.64113L4.80601 5.64113C3.33887 6.34701 2.3999 7.87642 2.3999 9.46466V20.9352C2.3999 22.5823 3.33887 24.0529 4.80601 24.7588L13.0807 28.7588C14.2544 29.347 15.6041 29.347 16.7778 28.7588L25.0525 24.7588C26.4609 24.1117 27.3999 22.5823 27.3999 20.9941Z" fill="#204E7F"/>
<path id="Vector_2" d="M21.7214 10.997C22.0701 11.3459 22.0701 11.9117 21.7214 12.2607L14.5662 19.4221C14.2175 19.771 13.6522 19.771 13.3035 19.4221L8.67362 14.7883C8.32494 14.4393 8.32494 13.8735 8.67362 13.5245C9.0223 13.1755 9.58763 13.1755 9.93631 13.5245L13.9348 17.5264L20.4587 10.997C20.8074 10.648 21.3727 10.648 21.7214 10.997Z" fill="#FAF8FF"/>
</g>
</g>
</svg>
