<svg width="90" height="90" viewBox="0 0 90 90" fill="none" xmlns="http://www.w3.org/2000/svg">
<g id="Icon Compan Fakt">
<g id="Illustration">
<path id="Vector" d="M59.9575 85.8132C59.9575 76.5292 59.9575 67.3484 59.9575 58.0644C59.9575 57.5486 59.7507 57.136 59.4404 56.7234C58.0962 55.4855 56.8553 54.1445 55.7178 53.0098C55.3042 52.5972 54.994 52.494 54.4769 52.494C47.9624 52.494 41.5512 52.494 35.0366 52.494C34.5196 52.494 34.106 52.7003 33.7958 53.0098C32.6583 54.1445 31.4174 55.3824 30.1766 56.6202C29.6595 57.0328 29.4527 57.5486 29.5561 58.2707C29.5561 67.5547 29.5561 76.7355 29.5561 85.71C29.5561 86.4321 29.7629 86.9479 30.1766 87.2573H59.4404C59.8541 86.8447 60.0609 86.4321 59.9575 85.8132ZM46.5147 56.9297L47.4453 56.0013C47.6522 55.795 48.376 55.1761 48.4794 54.9697C49.2032 54.0413 49.9271 53.9382 51.168 54.1445C51.7884 54.2477 52.4088 54.1445 53.0293 54.1445C53.3395 54.1445 53.6497 54.1445 53.8565 54.1445H54.1667L54.5804 54.9697L53.2361 56.3108C52.0986 57.4455 50.8577 58.5802 49.7203 59.818C49.6169 59.9212 49.4101 60.1275 48.9964 60.1275C48.6862 60.1275 48.4794 59.9212 48.2726 59.7149C48.0658 59.5086 47.859 59.4054 47.6522 59.1991C47.0317 58.6833 46.8249 58.5802 46.2045 57.7549C45.8943 57.3423 45.9977 57.3423 46.5147 56.9297ZM46.6181 54.2477L44.6534 56.1045L42.6887 54.2477H46.6181ZM39.5865 54.2477C40.0001 54.2477 40.3103 54.454 40.4137 54.6603L41.0342 55.2792C41.5512 55.795 42.0682 56.4139 42.6887 56.9297C42.7921 57.0328 43.1023 57.3423 43.1023 57.6518C43.1023 57.8581 42.9989 58.1676 42.6887 58.3739C42.4819 58.5802 42.3785 58.7865 42.1716 58.9928C41.6546 59.6117 41.1376 60.1275 40.5171 60.2307H40.4137C39.7933 60.2307 39.2763 59.6117 38.8627 59.096C38.6558 58.8896 38.5524 58.6833 38.3456 58.477C37.6218 57.7549 36.7945 56.9297 36.0707 56.2076L35.2435 55.3824C35.14 55.2792 35.0366 55.0729 35.0366 54.9697V54.8666L34.9332 54.2477H39.5865ZM40.2069 80.7585C40.0001 81.8933 39.8967 83.1311 39.7933 84.2658C39.6899 85.1942 39.0695 85.2974 38.5524 85.2974C36.5877 85.2974 34.623 85.2974 32.5549 85.2974H32.4515C32.0379 85.2974 31.7276 85.1942 31.5208 84.9879C31.2106 84.6784 31.2106 84.2658 31.2106 83.9564C31.2106 80.7585 31.2106 77.5607 31.2106 74.3629V58.7865C31.2106 58.0644 32.2447 56.6202 32.8651 56.3108C33.1753 56.2076 33.4856 56.3108 33.7958 56.6202L37.1048 59.9212C38.6558 61.4685 40.2069 63.0159 41.758 64.5632C42.1716 64.9758 42.1716 65.4916 42.0682 65.801V65.9042C41.5512 69.4115 41.1376 72.9188 40.6206 76.426L40.2069 80.7585ZM48.893 84.9879C48.5828 85.2974 48.2726 85.2974 47.9624 85.2974H47.859C46.5147 85.2974 45.067 85.2974 43.7227 85.2974H42.6887C42.4819 85.2974 42.0682 85.2974 41.8614 84.9879C41.6546 84.6784 41.6546 84.369 41.6546 84.1627C42.2751 79.4175 42.8955 74.6724 43.5159 69.9272L44.4466 65.801C44.4466 65.6979 44.8602 64.3569 44.8602 64.3569C44.8602 64.3569 41.8614 62.0875 41.8614 61.6748C41.8614 61.2622 44.55 58.6833 44.55 58.6833C44.55 58.6833 47.5488 61.1591 47.5488 61.5717C47.5488 61.9843 44.7568 64.2537 44.7568 64.2537L47.6522 77.8702C48.0658 79.8302 48.376 81.7901 48.7896 83.6469C49.0998 84.1627 49.2032 84.6784 48.893 84.9879ZM58.1996 68.0705V68.1736C58.1996 69.3083 58.1996 70.3399 58.1996 71.4746V74.7755C58.1996 77.767 58.1996 80.9649 58.1996 83.9564C58.1996 84.369 58.1996 84.7816 57.8893 85.0911C57.5791 85.4005 57.1655 85.4005 56.9587 85.4005C56.8553 85.4005 56.8553 85.4005 56.7519 85.4005C55.4076 85.4005 54.0633 85.2974 52.4088 85.4005C51.5816 85.4005 51.168 85.0911 50.9611 84.2658C50.3407 81.1712 49.7203 78.1797 49.0998 75.085L48.0658 69.9272C47.859 68.6894 47.5488 67.3484 47.2385 66.0074C47.1351 65.3884 47.2385 64.8726 47.6522 64.46C50.5475 61.6748 53.0293 59.1991 55.3042 56.8265C55.9246 56.1045 56.4417 56.4139 56.9587 56.8265C57.7859 57.5486 58.1996 58.3739 58.0962 59.5086C58.0962 62.3969 58.1996 65.2853 58.1996 68.0705Z" fill="#204E70"/>
<path id="Vector_2" d="M6.70378 58.4772C6.18675 58.993 5.66972 59.5087 5.15269 60.0245C4.11863 60.9529 3.18798 61.9845 2.25732 63.016V67.3485C2.25732 70.6495 2.25732 73.7442 2.25732 76.8388C2.25732 79.9335 2.25732 83.0281 2.25732 86.3291C2.25732 86.8449 2.46414 87.1543 2.98117 87.1543C5.77313 87.1543 8.35827 87.1543 10.9434 87.1543C13.7354 87.1543 16.6307 87.1543 19.6295 87.1543H23.5589C23.7658 87.1543 23.8692 87.0512 23.9726 86.948C24.2828 86.6386 24.2828 86.2259 24.2828 85.8133C24.2828 79.3145 24.2828 72.9189 24.2828 66.4201V63.635C24.2828 63.1192 24.1794 62.7066 23.8692 62.3971C22.7317 61.3655 21.6976 60.2308 20.5602 59.0961L19.7329 58.5803C19.4227 58.2709 19.1125 58.1677 18.6989 58.1677C14.9763 58.1677 11.2536 58.1677 7.63443 58.1677C7.22081 58.1677 6.91059 58.2709 6.70378 58.4772ZM19.1125 60.7466C19.4227 60.7466 19.6295 60.9529 19.8363 61.2624C21.6976 62.5002 22.4215 64.357 22.3181 67.0391C22.2147 71.3716 22.2147 75.8073 22.2147 80.0366L22.0079 80.1398H22.3181C22.3181 81.3776 22.3181 82.6155 22.3181 83.8534C22.3181 84.266 22.3181 84.6786 22.0079 84.9881C21.6976 85.2975 21.284 85.2975 21.0772 85.2975H20.9738C19.3193 85.1944 17.5614 85.2975 15.9069 85.2975H15.3899C15.0797 85.2975 14.7694 85.2975 14.5626 84.9881C14.2524 84.7818 14.2524 84.3692 14.2524 84.1628C14.2524 79.2114 14.2524 74.3631 14.2524 69.4116V65.0791L14.3558 64.976L14.5626 65.0791L14.3558 64.8728L16.8376 62.5002C17.3546 61.9845 17.8716 61.5718 18.2852 61.1592C18.2852 61.0561 18.5955 60.7466 19.1125 60.7466ZM16.7342 60.0245L15.8035 60.9529C15.7001 61.0561 15.4933 61.2624 15.3899 61.3655L15.0797 61.675C14.666 62.0876 13.9422 62.8097 13.3218 63.3255L13.1149 63.5318L12.9081 63.3255C11.7707 62.1908 10.9434 61.4687 10.84 61.3655L9.39233 60.0245H16.7342ZM9.08211 61.9845C9.59914 62.3971 11.7707 64.5633 12.1843 65.0791V65.1823V68.5864C12.1843 73.7442 12.1843 78.7988 12.1843 83.9565C12.1843 84.3691 12.1843 84.7818 11.8741 84.9881C11.6673 85.1944 11.357 85.2975 10.9434 85.2975H10.84C8.8753 85.1944 6.91059 85.2975 5.2561 85.2975C4.94588 85.2975 4.53225 85.2975 4.22204 84.9881C3.91182 84.6786 3.91182 84.266 3.91182 84.0597C3.91182 77.5609 3.91182 70.959 3.91182 65.1823V64.4602C3.91182 64.0476 4.01522 63.6349 4.42885 63.2223C5.2561 62.5002 5.87653 61.7782 6.49697 61.0561C6.70378 60.8498 6.91059 60.6434 7.22081 60.6434C7.53103 60.6434 7.84124 60.8498 8.04806 61.0561C8.46168 61.3655 8.7719 61.675 9.08211 61.9845Z" fill="#204E70"/>
<path id="Vector_3" d="M87.257 85.8132C87.257 79.3144 87.257 72.5062 87.257 63.738C87.257 63.1191 87.0502 62.8096 86.74 62.397C85.3957 61.0559 84.1548 59.8181 83.0174 58.6834C82.6037 58.2708 82.2935 58.1676 81.6731 58.1676C77.9505 58.1676 74.4347 58.1676 71.0223 58.1676C70.4019 58.1676 70.0916 58.3739 69.678 58.6834C68.4371 59.9212 67.2997 61.1591 66.0588 62.2938C65.5418 62.7064 65.335 63.2222 65.335 64.0475C65.335 71.4746 65.335 78.5923 65.335 85.71C65.335 86.5353 65.5418 86.9479 65.9554 87.2574H86.6366C87.0502 86.8448 87.257 86.4321 87.257 85.8132ZM75.0551 84.988C74.7449 85.2974 74.3313 85.2974 74.0211 85.2974H73.9177C72.1598 85.2974 70.4019 85.2974 68.4371 85.2974C68.1269 85.2974 67.7133 85.2974 67.5065 84.988C67.1963 84.6785 67.1963 84.2659 67.1963 84.0596C67.1963 79.6239 67.1963 75.1882 67.1963 70.7525V64.3569C67.1963 64.0475 67.1963 63.738 67.4031 63.4285C68.1269 62.6033 68.9542 61.778 69.9882 60.7465C70.0916 60.6433 70.2984 60.437 70.6087 60.5402C70.9189 60.5402 71.1257 60.7465 71.2291 60.9528L71.1257 61.1591L71.3325 60.9528C71.7461 61.3654 72.1598 61.778 72.5734 62.1907L74.9517 64.5632C75.0551 64.6664 75.2619 64.8727 75.3653 64.8727L75.4687 64.9758V69.721C75.4687 74.363 75.4687 79.1081 75.4687 83.7501C75.3653 84.4722 75.2619 84.7816 75.0551 84.988ZM76.5028 63.3254L76.296 63.5317L76.0892 63.3254C75.3653 62.6033 74.2279 61.4686 74.0211 61.3654C73.9177 61.2623 73.7108 61.1591 73.6074 60.9528L72.5734 60.0244H79.7084L78.8811 60.8496C78.7777 60.9528 78.6743 61.0559 78.5709 61.1591L78.4675 61.2623C78.3641 61.4686 77.2266 62.5001 76.5028 63.3254ZM85.1889 85.0911C84.9821 85.2974 84.5685 85.4006 84.3617 85.4006C82.1901 85.4006 80.122 85.4006 78.4675 85.4006C78.1573 85.4006 77.8471 85.4006 77.5369 85.0911C77.2266 84.7817 77.2266 84.369 77.2266 84.2659C77.2266 79.2113 77.2266 74.2598 77.2266 69.2052V65.1822L77.5369 64.8727C77.6403 64.7695 78.1573 64.2538 78.6743 63.738C79.2948 63.1191 80.0186 62.397 80.122 62.2938L80.2254 62.1907C80.639 61.778 81.0527 61.4686 81.4663 61.0559C81.5697 60.9528 81.8799 60.7465 82.1901 60.7465C82.5003 60.7465 82.7072 60.9528 82.914 61.0559C83.6378 61.778 84.3616 62.5001 85.0855 63.2222C85.4991 63.6348 85.6025 64.0474 85.6025 64.4601C85.6025 71.062 85.6025 77.5608 85.6025 84.1627C85.3957 84.369 85.3957 84.7817 85.1889 85.0911Z" fill="#204E70"/>
<path id="Vector_4" d="M78.0535 17.937C75.8819 15.7708 73.8138 13.7077 71.6423 11.5414C70.815 10.7162 70.6082 10.7162 69.6776 11.3351L68.3333 12.2635C66.472 13.5014 64.6107 14.6361 62.8528 15.8739C62.2324 16.2866 61.7153 16.2866 61.0949 16.0802C58.4063 14.9455 55.8212 13.8108 53.8565 13.0887C53.236 12.7793 52.9258 12.3667 52.8224 11.7477C52.5122 9.58147 52.202 7.41521 51.8918 5.3521L51.685 3.59846C51.2713 2.56691 50.9611 2.25745 50.1339 2.25745C46.5147 2.25745 42.8955 2.25745 39.2762 2.25745C38.449 2.25745 38.1388 2.56691 38.0354 3.39215L37.7252 5.3521C37.4149 7.2089 37.1047 9.47831 36.8979 11.5414C36.7945 12.2635 36.4843 12.573 35.8638 12.8824C32.9685 14.0171 30.6936 15.0487 28.522 15.9771C27.9016 16.2866 27.3846 16.1834 26.7641 15.7708C24.3858 14.2235 22.1109 12.6761 19.7325 11.1288C18.9053 10.613 18.6985 10.613 17.9746 11.3351C15.8031 13.5014 13.5282 15.6676 11.3566 17.937C10.6328 18.6591 10.6328 18.8654 11.1498 19.6907C11.4601 20.2065 11.7703 20.6191 12.0805 21.1349V21.238C13.0111 22.6822 14.0452 24.2295 14.9759 25.5705C15.6997 26.6021 16.6303 27.9431 15.5963 29.4904C16.3201 29.903 16.9406 30.2125 17.1474 30.2125C17.3542 30.1094 17.6644 29.3873 17.9746 28.6652V28.562C17.9746 28.4589 18.078 28.3557 18.078 28.3557C18.3882 27.7368 18.3882 27.3242 17.9746 26.7052C17.2508 25.6737 16.5269 24.539 15.9065 23.5074L15.8031 23.4043C15.0793 22.2696 14.252 21.1349 13.5282 20.0001C13.0111 19.2781 13.1145 18.7623 13.735 18.1434C15.1827 16.8023 16.6303 15.255 18.2848 13.6045C18.8019 13.0887 19.3189 12.9856 19.9393 13.3982C21.1802 14.2235 22.3177 15.0487 23.5585 15.7708L23.662 15.8739C24.696 16.4929 25.6267 17.215 26.6607 17.8339C27.1778 18.1434 27.5914 18.2465 28.1084 18.0402C30.797 16.9055 33.6923 15.6676 37.5183 14.1203C38.0354 13.914 38.3456 13.5014 38.449 12.8824C38.6558 11.6446 38.7592 10.5099 38.966 9.272V9.06569C39.1728 7.72467 39.3796 6.38366 39.4831 5.04264C39.5865 4.32055 40.0001 3.90793 40.7239 4.01109C41.6546 4.01109 42.4818 4.01109 43.4125 4.01109H44.5499H45.6874C46.6181 4.01109 47.5487 4.01109 48.4794 4.01109C49.0998 4.01109 49.6168 4.11424 49.8236 5.14579C50.0305 6.48681 50.1339 7.72467 50.3407 8.96254C50.5475 10.2004 50.7543 11.5414 50.8577 12.7793C50.9611 13.5014 51.2713 13.8108 51.8918 14.1203C55.3042 15.4613 58.3029 16.8023 61.0949 17.937C61.7153 18.2465 62.2324 18.1434 62.7494 17.7307C63.8869 16.9055 65.1277 16.1834 66.3686 15.3582C67.4027 14.6361 68.4367 14.0171 69.4708 13.2951C69.8844 12.9856 70.5048 12.7793 71.1253 13.3982C72.5729 14.9455 74.124 16.3897 75.7785 18.0402C76.2956 18.556 76.399 19.0717 75.9854 19.6907C75.2615 20.8254 74.5377 22.0633 73.7104 23.5074C73.5036 23.92 73.2968 24.2295 73.09 24.539C72.3661 25.7768 72.3661 25.7768 72.8832 27.221C72.9866 27.5305 73.1934 27.8399 73.2968 28.3557C73.607 29.0778 73.8138 29.7999 74.0206 29.903C74.2274 30.0062 74.8479 29.6967 75.5717 29.3873C75.5717 29.3873 75.5717 29.3873 75.6751 29.3873C75.5717 28.9747 75.3649 28.6652 75.2615 28.2526C75.0547 27.7368 74.9513 27.3242 74.7445 26.9115C74.4343 26.2926 74.5377 25.7768 74.8479 25.1579C75.7785 23.6106 76.6058 22.1664 77.5364 20.6191L78.1569 19.4844C78.8807 18.8654 78.7773 18.6591 78.0535 17.937Z" fill="#C62331"/>
<path id="Vector_5" d="M33.899 27.4271V27.5303C33.899 27.6334 33.899 27.7366 33.899 27.7366C33.899 28.665 33.899 29.5934 33.7956 30.5218C33.6922 33.4101 33.5888 36.4016 34.0024 39.29C34.7263 44.5509 39.7932 48.6771 45.0669 48.3676C51.0644 47.955 55.5109 43.6225 55.6143 37.949C55.6143 36.1953 55.6143 34.3385 55.6143 32.5849C55.6143 31.7597 55.6143 30.9344 55.6143 30.1092V27.8398C55.6143 25.8798 55.6143 23.9199 55.6143 21.9599C55.6143 21.0315 55.304 20.722 54.3734 20.722H51.9951C50.444 20.722 48.7895 20.722 47.2384 20.722C45.3771 20.722 43.5158 20.722 41.6545 20.722C37.9319 20.9284 34.6229 23.7135 33.899 27.4271ZM53.8564 32.2754C53.8564 33.6164 53.8564 34.9575 53.8564 36.2985V36.7111C53.8564 37.5363 53.8564 38.4647 53.6495 39.29C52.9257 42.9004 49.8235 45.8919 46.2043 46.4077C45.7907 46.614 45.2737 46.614 44.7566 46.614C41.4477 46.614 38.3455 44.8604 36.7944 41.8689C35.9671 40.4247 35.6569 38.9805 35.6569 37.33V36.6079C35.6569 35.1638 35.6569 33.8228 35.6569 32.4817C35.6569 32.1723 35.6569 31.7597 35.9671 31.4502C36.2774 31.1407 36.691 31.1407 37.0012 31.1407C38.3455 31.1407 39.6897 31.1407 41.034 31.1407C42.6885 31.1407 44.4464 31.1407 46.2043 31.1407C48.4793 31.1407 50.8576 30.9344 53.0291 28.9745L53.8564 28.2524V32.2754ZM48.5827 22.682H48.7895C50.1337 22.682 51.478 22.682 52.8223 22.682C53.0291 22.682 53.4427 22.682 53.6495 22.9915C53.8564 23.3009 53.8564 23.6104 53.8564 23.8167V23.9199C53.5461 26.8082 51.0644 29.2839 47.9622 29.3871C46.6179 29.4902 45.3771 29.3871 44.1362 29.3871C43.6192 29.3871 43.2056 29.3871 42.6885 29.3871H42.4817C41.9647 29.3871 41.4477 29.3871 40.9306 29.3871H40.8272C39.5863 29.3871 38.2421 29.3871 37.0012 29.3871H36.8978C36.5876 29.3871 36.2774 29.3871 35.9671 29.0776C35.6569 28.7682 35.7603 28.2524 35.7603 28.0461C36.1739 25.0546 38.6557 22.7851 41.7579 22.682C43.9294 22.682 46.3077 22.682 48.5827 22.682Z" fill="#204E70"/>
<path id="Vector_6" d="M84.3617 43.1068C84.3617 42.1785 84.3617 41.3532 84.3617 40.528C84.2583 37.1238 82.0868 34.4418 78.8812 33.926C78.2607 33.8229 77.5369 33.7197 76.7096 33.7197C76.0892 33.7197 75.4688 33.7197 74.8483 33.8229H74.6415C70.9189 34.0292 68.2304 36.7112 68.127 40.4248C68.127 42.1785 68.127 43.9321 68.127 45.5826V45.9952C68.127 46.511 68.127 47.1299 68.127 47.6457C68.127 48.9867 68.4372 50.1214 69.161 51.3593C70.7121 54.2476 73.9177 55.8981 77.2267 55.4855C80.4323 55.0729 83.2242 52.7003 84.0515 49.6056C84.3617 48.3678 84.3617 47.2331 84.3617 45.9952C84.3617 45.4794 84.3617 44.9636 84.3617 44.4479C84.3617 44.0352 84.3617 43.5195 84.3617 43.1068ZM78.1573 35.6797C79.1914 35.6797 80.3289 36.1955 81.1561 37.1238C82.0868 38.0522 82.5004 39.0838 82.5004 40.0122C82.5004 40.8374 81.7765 40.8374 81.5697 40.8374H81.4663C80.5357 40.8374 79.3982 40.3217 78.571 39.3933C77.6403 38.4649 77.1233 37.3302 77.2267 36.4018C77.2267 36.0923 77.4335 35.5765 78.1573 35.6797ZM70.0917 39.8059C70.2985 37.7428 72.2632 35.7828 74.3313 35.6797C74.6415 35.6797 74.9517 35.6797 75.1586 35.886C75.3654 36.0923 75.3654 36.4018 75.3654 36.6081C75.3654 38.568 73.1938 40.8374 71.2291 40.8374H71.1257C70.8155 40.8374 70.6087 40.7343 70.4019 40.6311C70.0917 40.4248 70.0917 40.0122 70.0917 39.8059ZM82.6038 45.892C82.6038 46.0984 82.6038 46.3047 82.6038 46.511V46.6141C82.6038 47.2331 82.6038 47.7488 82.5004 48.4709C81.9833 51.5656 79.5016 53.835 76.296 53.835C76.1926 53.835 76.0892 53.835 75.9858 53.835C72.7802 53.6287 70.2985 51.153 70.0917 47.9551C70.0917 47.1299 70.0917 46.3047 70.0917 45.5826V45.4794C70.0917 44.9636 70.0917 44.4479 70.0917 43.9321C70.0917 43.21 70.4019 42.9005 71.1257 42.7974C72.8836 42.6942 74.3313 41.9721 75.4688 40.6311C75.6756 40.4248 75.8824 40.2185 76.1926 40.2185C76.6062 40.2185 76.8131 40.528 76.9165 40.6311C78.1573 41.9721 79.605 42.6942 81.3629 42.7974C82.1902 42.7974 82.5004 43.3132 82.5004 44.0352C82.5004 44.4479 82.5004 44.8605 82.5004 45.2731C82.6038 45.4794 82.6038 45.6857 82.6038 45.892Z" fill="#204E70"/>
<path id="Vector_7" d="M5.15277 39.7029C4.94596 42.1786 4.94596 44.7575 5.04937 47.9553C5.25618 51.9783 8.46176 55.2793 12.3912 55.4856C16.6308 55.6919 20.25 53.0099 21.0773 48.8837C21.2841 47.749 21.2841 46.7174 21.1807 45.6859C21.1807 45.1701 21.1807 44.6543 21.1807 44.2417V42.9007C21.1807 42.0754 21.1807 41.2502 21.1807 40.5281C21.0773 37.0208 19.1126 34.4419 15.907 33.823C14.9763 33.6167 14.0457 33.5135 13.115 33.5135C12.1844 33.5135 11.2537 33.6167 10.2197 33.823C7.53111 34.5451 5.46299 36.8145 5.15277 39.7029ZM7.3243 38.7745C7.53111 37.9492 7.94473 37.4334 8.35836 37.0208L9.28901 36.0924V37.4334C9.28901 38.3618 8.97879 38.9808 8.04814 39.3934L7.11749 39.9092L7.3243 38.7745ZM11.6673 35.9893C11.7708 35.783 11.9776 35.6798 12.3912 35.6798C12.7014 35.6798 13.0116 35.6798 13.3218 35.6798C14.1491 35.6798 15.0797 35.5767 15.907 35.8861C17.3547 36.2987 18.3887 37.3303 19.0092 38.8776L19.3194 39.5997H18.4921C18.0785 39.5997 17.6649 39.5997 17.2513 39.5997C16.424 39.5997 15.5968 39.5997 14.7695 39.3934C13.3218 39.0839 12.2878 38.2587 11.5639 36.9177C11.6673 36.6082 11.4605 36.2987 11.6673 35.9893ZM11.0469 39.3934C11.2537 39.3934 11.4605 39.4966 11.6673 39.5997C13.3218 41.147 15.39 41.3533 17.9751 41.2502C18.4921 41.2502 18.8024 41.3533 19.1126 41.5597C19.4228 41.8691 19.4228 42.2817 19.4228 42.6944C19.4228 43.3133 19.4228 43.8291 19.4228 44.5512C19.4228 44.8606 19.4228 45.1701 19.4228 45.4796C19.4228 45.789 19.4228 46.2016 19.4228 46.5111C19.4228 47.4395 19.4228 48.4711 19.1126 49.6058C18.2853 52.0815 15.907 53.732 13.2184 53.732C13.0116 53.732 12.8048 53.732 12.4946 53.732C9.70263 53.4225 7.4277 51.1531 7.11749 48.3679C7.01408 47.0269 7.01408 45.789 7.01408 44.5512C7.01408 43.8291 7.01408 43.107 7.01408 42.3849C7.01408 41.5597 7.53111 41.3533 7.94473 41.2502C9.0822 41.147 9.90945 40.6313 10.5299 39.806C10.4265 39.7029 10.6333 39.4966 11.0469 39.3934Z" fill="#204E70"/>
</g>
</g>
</svg>
