<svg width="192" height="58" viewBox="0 0 192 58" fill="none" xmlns="http://www.w3.org/2000/svg">
<g id="&#208;&#187;&#208;&#190;&#208;&#179;&#208;&#190;">
<path id="Vector" d="M28.2769 0C34.9691 2.26215 50.6156 7.72901 50.6156 7.72901V28.9367V51.1812C50.6156 51.1812 34.8748 55.9882 28.2769 57.9676C28.0884 55.894 27.8999 51.9352 27.7113 46.7511C27.7113 46.7511 27.8056 46.7511 27.8999 46.7511C33.3667 46.3741 37.514 44.866 40.3417 42.4153C43.1694 39.9647 44.5832 35.9116 44.5832 30.3505C44.5832 24.6951 43.0751 20.6421 40.1532 18.1915C37.2312 15.6465 33.0839 14.327 27.8056 14.0442H27.6171C27.8056 6.97496 28.1826 2.07364 28.2769 0ZM22.1502 57.9676C15.3638 55.894 0 51.1812 0 51.1812V28.9367V7.72901C0 7.72901 15.2695 2.45066 22.056 0.0942563C22.2445 2.26215 22.5272 7.16348 22.7158 14.1384H21.9617C16.5891 14.4212 12.4418 15.8351 9.7084 18.38C6.97496 20.9249 5.56112 24.9779 5.56112 30.4448C5.56112 36.0059 7.06922 40.0589 9.89691 42.6038C12.6303 44.9602 16.8719 46.4683 22.5272 46.8454C22.5272 52.0295 22.3387 55.7997 22.1502 57.9676ZM22.81 16.9661C22.9043 20.6421 22.9985 24.7894 22.9985 29.3137C22.9985 34.8748 22.9043 39.7761 22.81 43.8292C18.9455 43.5464 16.2121 42.2268 14.5155 40.4359C12.6303 38.4566 11.6878 35.0633 11.5935 30.3505C11.5935 25.732 12.5361 22.433 14.4212 20.4536C16.1178 18.5685 18.8513 17.2489 22.81 16.9661ZM38.7393 30.3505C38.7393 35.0633 37.7025 38.4566 35.8174 40.4359C34.215 42.0383 30.7275 43.3579 27.5228 43.9234C27.4286 39.7761 27.3343 34.9691 27.3343 29.3137C27.3343 24.7894 27.4286 20.5479 27.5228 16.8719C30.9161 17.1546 34.0265 18.4742 35.8174 20.2651C37.7025 22.3387 38.6451 25.732 38.7393 30.3505Z" fill="#204E7F"/>
<path id="Vector_2" d="M77.95 45.9029H71.9176V43.1695C62.9632 42.4155 58.7217 38.0797 58.7217 29.5966C58.7217 21.1136 62.7747 16.7778 71.5405 16.0237L71.4463 13.2903H77.5729V15.9295C86.6215 16.6835 90.7688 21.0193 90.7688 29.5024C90.7688 37.8912 86.7158 42.1327 77.6672 43.0753C77.6672 43.358 77.7614 43.6408 77.7614 43.9236C77.7614 44.3006 77.8557 44.6776 77.8557 45.0546L77.95 45.9029ZM71.729 19.794C66.8277 20.6423 64.8483 23.47 64.8483 29.5024C64.8483 35.629 67.0162 38.551 71.9176 39.305V26.1091C71.9176 23.9412 71.8233 21.9619 71.729 19.794ZM77.5729 19.794C77.4787 23.2814 77.3844 26.6747 77.3844 30.1622C77.3844 33.2726 77.3844 36.2888 77.5729 39.3993C82.6628 38.6452 84.8307 35.7233 84.8307 29.5024C84.8307 23.3757 82.6628 20.4538 77.5729 19.794Z" fill="#333333"/>
<path id="Vector_3" d="M124.984 45.8084H118.198L118.009 45.2429C117.349 42.7922 115.747 37.7966 114.71 34.8747H104.813L100.854 45.8084H95.7646L96.3302 44.7716C98.8751 39.9645 107.735 14.3268 107.829 14.044L108.018 13.5728H113.485L113.673 14.044C115.181 19.1339 122.156 39.776 124.607 44.6773L124.984 45.8084ZM106.133 30.9159H113.296C113.108 30.2561 112.825 29.5021 112.542 28.5595C111.694 26.0146 110.657 22.6214 109.809 20.2649L106.133 30.9159Z" fill="#333333"/>
<path id="Vector_4" d="M158.539 45.8087H151.093L150.904 45.6202C150.244 44.9604 149.773 44.3006 148.453 42.227C147.888 41.3786 147.322 40.4361 146.757 39.3993C146.191 38.4567 145.626 37.5141 145.06 36.5716L144.872 36.1946C143.458 33.9324 140.913 29.7851 138.556 29.0311L138.274 28.9368C138.274 29.3138 138.274 29.6909 138.274 30.0679C138.274 35.1577 138.368 40.1533 139.028 44.9604L139.122 45.8087H132.807V26.0149C132.807 22.5274 132.713 18.2859 131.959 14.1386L131.77 13.2903H138.556V14.0443C138.556 15.2697 138.462 16.4007 138.462 17.6261C138.368 20.8308 138.274 24.0355 138.274 27.3345L138.462 27.2402C141.855 26.0149 147.605 18.0974 148.076 14.0443L148.171 13.3845H154.014L153.637 14.4214C152.883 16.118 152.506 17.0605 151.375 19.1342C149.207 23.0929 147.134 25.9206 145.249 27.523C147.228 29.0311 148.453 31.1047 150.621 34.4037C151.281 35.4405 152.035 36.5716 152.883 37.8912C154.769 40.8131 156.371 43.0753 157.785 44.6776L158.539 45.8087Z" fill="#333333"/>
<path id="Vector_5" d="M176.919 45.7144H170.698V26.0148C170.698 23.1872 170.604 20.3595 170.321 17.4375H168.813C166.928 17.4375 165.043 17.626 162.309 18.1916L161.461 18.3801V13.4788H185.308L185.025 18.3801L184.177 18.1916C181.726 17.7203 179.747 17.4375 177.579 17.4375H176.259C176.259 18.3801 176.259 19.4169 176.165 20.3595C176.071 23.7527 175.976 26.9574 175.976 30.0679C175.976 35.0634 176.071 39.9648 176.73 44.8661L176.919 45.7144Z" fill="#333333"/>
<path id="Vector_6" d="M192 42.3211C192 44.3947 190.303 46.1856 188.136 46.1856C186.062 46.1856 184.271 44.4889 184.271 42.3211C184.271 40.2474 185.968 38.4565 188.136 38.4565C190.303 38.5508 192 40.2474 192 42.3211Z" fill="#333333"/>
</g>
</svg>
