<svg width="245" height="65" viewBox="0 0 245 65" fill="none" xmlns="http://www.w3.org/2000/svg">
<g id="logo frame">
<g id="logo &#208;&#157;&#208;&#181;&#208;&#179;&#208;&#190;&#209;&#128;&#208;&#190;&#208;&#180;">
<g id="logo &#208;&#157;&#208;&#181;&#208;&#179;&#208;&#190;&#209;&#128;&#208;&#190;&#208;&#180;_2">
<g id="Group">
<path id="Vector" d="M3.01369 39.17H0V19H3.01369V27.6443H12.8082V19H15.8219V39.17H12.8082V29.9921H3.01369V39.17Z" fill="#202F3B"/>
<path id="Vector_2" d="M26.5851 39.4901C24.3249 39.4901 22.6028 38.8498 21.3112 37.5691C20.1272 36.2885 19.4814 34.581 19.4814 32.4466C19.4814 30.4189 20.1272 28.8182 21.3112 27.4308C22.4951 26.1502 24.1096 25.4031 26.2622 25.4031C28.4149 25.4031 29.9217 25.9367 30.998 27.0039C32.0744 28.0711 32.5049 29.5652 32.5049 31.2727L32.3973 32.8735H22.2799C22.3875 34.1541 22.7104 35.2213 23.4638 36.0751C24.2172 36.8221 25.2936 37.249 26.5851 37.249C27.1233 37.249 27.6615 37.1423 28.1996 37.0355C28.6301 36.9288 29.0607 36.8221 29.2759 36.6087C29.4912 36.5019 29.8141 36.2885 29.9217 36.1818C30.137 35.9683 30.2446 35.8616 30.3523 35.7549L30.4599 35.5415H32.182V37.249C31.5362 38.1027 30.4599 38.7431 28.953 39.1699C28.3072 39.3834 27.4462 39.4901 26.5851 39.4901ZM22.3875 30.8458H29.8141C29.8141 29.8853 29.4912 29.1383 28.953 28.6047C28.3072 28.0711 27.4462 27.751 26.2622 27.751C24.1096 27.751 22.818 28.8182 22.3875 30.8458Z" fill="#202F3B"/>
<path id="Vector_3" d="M38.4252 39.17H35.7344V25.7234H44.9907V27.9645H38.4252V39.17Z" fill="#202F3B"/>
<path id="Vector_4" d="M53.1702 39.4901C51.0175 39.4901 49.4031 38.8498 48.1115 37.4624C46.8199 36.0751 46.2817 34.4743 46.2817 32.4466C46.2817 30.4189 46.9275 28.8182 48.1115 27.4308C49.4031 26.0435 51.0175 25.4031 53.1702 25.4031C55.2152 25.4031 56.9373 26.0435 58.2289 27.4308C59.5204 28.8182 60.1662 30.4189 60.1662 32.4466C60.1662 34.4743 59.5204 36.0751 58.2289 37.4624C56.9373 38.8498 55.2152 39.4901 53.1702 39.4901ZM50.0488 35.8616C50.8023 36.7154 51.771 37.249 53.1702 37.249C54.5694 37.249 55.5381 36.8221 56.2915 35.8616C57.0449 35.0079 57.3678 33.834 57.3678 32.4466C57.3678 31.0593 57.0449 29.9921 56.2915 29.1383C55.5381 28.2846 54.5694 27.751 53.1702 27.751C51.8786 27.751 50.8023 28.1778 50.0488 29.1383C49.2954 29.9921 48.9725 31.166 48.9725 32.4466C48.9725 33.834 49.2954 35.0079 50.0488 35.8616Z" fill="#202F3B"/>
<path id="Vector_5" d="M65.9779 46.0001H63.2871V25.7234H65.655L65.8703 27.8578C66.9466 26.257 68.5611 25.51 70.6061 25.51C72.5434 25.51 74.0503 26.1503 75.2342 27.5377C76.4182 28.925 76.9563 30.5258 76.9563 32.5535C76.9563 34.5812 76.4182 36.1819 75.2342 37.5693C74.0503 38.9566 72.5434 39.597 70.6061 39.597C68.5611 39.597 66.9466 38.8499 65.8703 37.2491V46.0001H65.9779ZM70.1755 37.2491C71.5747 37.2491 72.5434 36.8223 73.2969 35.8618C74.0503 35.008 74.3732 33.8341 74.3732 32.4468C74.3732 31.0594 74.0503 29.9922 73.2969 29.0317C72.5434 28.178 71.5747 27.7511 70.1755 27.7511C68.884 27.7511 67.9153 28.178 67.1619 29.1385C66.4084 29.9922 65.9779 31.1661 65.9779 32.4468C65.9779 33.8341 66.4084 34.9013 67.1619 35.8618C67.8076 36.7155 68.884 37.2491 70.1755 37.2491Z" fill="#202F3B"/>
<path id="Vector_6" d="M86.3206 39.4901C84.1679 39.4901 82.5534 38.8498 81.2619 37.4624C79.9703 36.0751 79.4321 34.4743 79.4321 32.4466C79.4321 30.4189 80.0779 28.8182 81.2619 27.4308C82.5534 26.0435 84.1679 25.4031 86.3206 25.4031C88.3656 25.4031 90.0877 26.0435 91.3793 27.4308C92.6708 28.8182 93.3166 30.4189 93.3166 32.4466C93.3166 34.4743 92.6708 36.0751 91.3793 37.4624C90.0877 38.8498 88.3656 39.4901 86.3206 39.4901ZM83.1992 35.8616C83.9527 36.7154 84.9213 37.249 86.3206 37.249C87.7198 37.249 88.6885 36.8221 89.4419 35.8616C90.1953 35.0079 90.5182 33.834 90.5182 32.4466C90.5182 31.0593 90.1953 29.9921 89.4419 29.1383C88.6885 28.2846 87.7198 27.751 86.3206 27.751C85.029 27.751 83.9527 28.1778 83.1992 29.1383C82.4458 29.9921 82.1229 31.166 82.1229 32.4466C82.1229 33.834 82.4458 35.0079 83.1992 35.8616Z" fill="#202F3B"/>
<path id="Vector_7" d="M96.8691 43.0119H94.3936V37.0356H95.9004C96.6538 36.502 97.0844 34.9012 97.2996 32.2332L97.7301 25.7233H107.848V37.0356H110V43.0119H107.632V39.2767H96.8691V43.0119ZM98.6988 37.0356H105.157V27.8577H100.098L99.7751 32.6601C99.5599 34.581 99.237 36.0751 98.6988 37.0356Z" fill="#202F3B"/>
</g>
</g>
</g>
</g>
</svg>
