<svg width="245" height="65" viewBox="0 0 245 65" fill="none" xmlns="http://www.w3.org/2000/svg">
<g id="logo frame">
<g id="logo &#208;&#164;&#208;&#176;&#208;&#186;&#209;&#130; &#208;&#184;&#208;&#189;&#208;&#180;&#209;&#131;&#209;&#129;&#209;&#130;&#209;&#128;&#208;&#184;&#208;&#176;&#208;&#187;&#209;&#140;&#208;&#189;&#209;&#139;&#208;&#181; &#208;&#191;&#208;&#176;&#209;&#128;&#208;&#186;&#208;&#184;">
<g id="logo">
<g id="Sign">
<g id="Group">
<path id="Vector" d="M7.42627 32.7592C7.42627 36.9569 10.3323 40.5087 14.3147 41.4774C14.53 41.585 14.8529 41.3698 14.8529 41.0469C14.9605 38.5713 14.9605 35.7729 14.9605 32.6516C14.9605 29.5303 14.9605 26.7318 14.8529 24.3639C14.8529 24.1487 14.6376 23.9334 14.3147 23.9334C10.3323 24.9021 7.42627 28.5616 7.42627 32.7592Z" fill="#11447B"/>
<path id="Vector_2" d="M4.62817 32.7593C4.62817 26.9471 8.82582 22.1037 14.315 21.135C14.5303 21.135 14.6379 20.9198 14.6379 20.7045C14.5303 18.3366 14.4227 16.3992 14.315 15L0 23.2877V42.2309L14.315 50.5185C14.4227 49.0117 14.5303 47.0743 14.6379 44.814C14.6379 44.5988 14.5303 44.3835 14.315 44.3835C8.82582 43.3072 4.62817 38.5714 4.62817 32.7593Z" fill="#11447B"/>
</g>
<g id="Group_2">
<path id="Vector_3" d="M25.4009 32.7593C25.4009 28.5617 22.4949 25.0098 18.5125 24.0411C18.2972 23.9335 17.9743 24.1488 17.9743 24.4716C17.8667 26.9472 17.8667 29.7456 17.8667 32.7593C17.8667 35.773 17.9743 38.5714 17.9743 41.1546C17.9743 41.3699 18.1896 41.5851 18.5125 41.5851C22.3872 40.5088 25.4009 36.9569 25.4009 32.7593Z" fill="#11447B"/>
<path id="Vector_4" d="M18.4049 15C18.2973 16.3992 18.1897 18.3366 18.082 20.7045C18.082 20.9198 18.1897 21.135 18.4049 21.135C23.8942 22.1037 28.0918 26.9471 28.0918 32.7593C28.0918 38.5714 23.8942 43.3072 18.4049 44.2759C18.1897 44.2759 18.082 44.4911 18.082 44.7064C18.1897 47.0743 18.2973 49.0117 18.4049 50.4109L32.72 42.1232V23.2877L18.4049 15Z" fill="#11447B"/>
</g>
</g>
<g id="Text">
<g id="Group_3">
<path id="Vector_5" d="M49.2956 37.2798H46.0666V35.773C41.2232 35.3425 38.9629 32.9746 38.9629 28.454C38.9629 23.9335 41.1155 21.5656 45.8513 21.1351V19.7358H49.0803V21.1351C53.9237 21.5656 56.184 23.9335 56.184 28.454C56.184 32.9746 54.0314 35.2348 49.1879 35.773C49.1879 35.8806 49.1879 36.0959 49.1879 36.2035C49.1879 36.4188 49.1879 36.634 49.1879 36.8493L49.2956 37.2798ZM45.959 23.2877C43.3758 23.7182 42.2995 25.2251 42.2995 28.5617C42.2995 31.7906 43.4834 33.4051 46.0666 33.8356V26.7319C46.0666 25.548 46.0666 24.4716 45.959 23.2877ZM49.0803 23.2877C49.0803 25.2251 48.9727 26.9472 48.9727 28.8846C48.9727 30.6067 48.9727 32.2211 49.0803 33.8356C51.7711 33.4051 52.955 31.8982 52.955 28.5617C52.955 25.2251 51.8787 23.6106 49.0803 23.2877Z" fill="#0F0D09"/>
<path id="Vector_6" d="M74.4814 37.1723H70.8219L70.7143 36.8494C70.3914 35.5578 69.5303 32.867 68.9922 31.3602H63.7182L61.6732 37.1723H58.9824L59.3053 36.6341C60.7045 34.051 65.4403 20.2741 65.4403 20.1664L65.548 19.9512H68.454L68.5617 20.2741C69.4227 22.9649 73.0822 34.051 74.3738 36.7417L74.4814 37.1723ZM64.4717 29.2075H68.3464C68.2388 28.8846 68.1311 28.4541 67.9159 27.9159C67.4853 26.5167 66.8396 24.7946 66.409 23.503L64.4717 29.2075Z" fill="#0F0D09"/>
<path id="Vector_7" d="M92.5638 37.1722H88.5814L88.4738 37.0646C88.1509 36.7417 87.828 36.3111 87.1822 35.2348C86.8593 34.8043 86.5364 34.2661 86.2135 33.728C85.8906 33.1898 85.5677 32.7593 85.2448 32.2211L85.1372 32.0059C84.3838 30.8219 82.9846 28.5616 81.693 28.1311H81.5853C81.5853 28.3464 81.5853 28.5616 81.5853 28.7769C81.5853 31.4677 81.5853 34.1585 82.0159 36.7417L82.1235 37.1722H78.6793V26.6243C78.6793 24.6869 78.6793 22.5342 78.2487 20.274L78.1411 19.8434H81.8006V20.274C81.8006 20.9198 81.8006 21.5656 81.8006 22.2113C81.8006 23.9335 81.693 25.6556 81.693 27.3777H81.8006C83.6303 26.7319 86.7517 22.5342 86.9669 20.274V19.9511H90.0883L89.7654 20.3816C89.3348 21.3503 89.1196 21.7808 88.5814 22.8571C87.3975 25.0098 86.3211 26.5166 85.2448 27.3777C86.3211 28.2387 86.9669 29.3151 88.1509 31.1448C88.4738 31.683 88.9043 32.3287 89.3348 32.9745C90.3035 34.4814 91.1646 35.773 91.918 36.634L92.5638 37.1722Z" fill="#0F0D09"/>
<path id="Vector_8" d="M102.358 37.1722H99.0219V26.6243C99.0219 25.1174 99.0219 23.6106 98.8066 21.9961H97.9455C96.9769 21.9961 95.9005 22.1037 94.5013 22.4266L94.0708 22.5342V19.8434H106.879L106.771 22.5342L106.341 22.4266C105.049 22.2113 103.973 21.9961 102.789 21.9961H102.036C102.036 22.5342 102.036 23.0724 102.036 23.5029C102.036 25.3327 101.928 27.0548 101.928 28.6693C101.928 31.3601 101.928 33.9432 102.358 36.634V37.1722Z" fill="#0F0D09"/>
<path id="Vector_9" d="M110 35.3424C110 36.5264 109.031 37.3874 107.955 37.3874C106.771 37.3874 105.91 36.4187 105.91 35.3424C105.91 34.1585 106.879 33.2974 107.955 33.2974C109.031 33.2974 110 34.2661 110 35.3424Z" fill="#0F0D09"/>
</g>
<g id="Group_4">
<path id="Vector_10" d="M42.4077 44.9216V41.9079L42.5154 42.0156L40.578 44.9216H40.1475V41.0469H40.6856V44.0606H40.578L42.5154 41.0469H42.9459V44.9216H42.4077Z" fill="#0F0D09"/>
<path id="Vector_11" d="M44.0225 41.0469H44.5606V44.9216H44.0225V41.0469ZM44.3454 42.769H46.498V43.3071H44.3454V42.769ZM46.2827 41.0469H46.8209V44.9216H46.2827V41.0469Z" fill="#0F0D09"/>
<path id="Vector_12" d="M47.4668 44.3835H50.8034V44.9216H47.4668V44.3835ZM47.4668 44.3835H48.005V45.675H47.4668V44.3835ZM47.4668 44.3835C47.6821 44.3835 47.8973 44.2758 48.005 44.1682C48.1126 43.9529 48.2202 43.7377 48.2202 43.4148V41.1545H48.7584V43.5224C48.7584 43.8453 48.7584 44.0606 48.6508 44.2758C48.5431 44.4911 48.4355 44.5987 48.2202 44.7064C48.005 44.814 47.7897 44.814 47.5744 44.814H47.4668V44.3835ZM48.5431 41.0469H50.2652V41.585H48.5431V41.0469ZM49.9423 41.0469H50.4805V44.9216H49.9423V41.0469ZM50.4805 44.3835H51.0187V45.675H50.4805V44.3835Z" fill="#0F0D09"/>
<path id="Vector_13" d="M51.1255 41.0468H51.7713L52.8476 43.8452L52.5247 44.2757L51.1255 41.0468ZM53.0629 44.0605C52.9552 44.2757 52.9552 44.3834 52.8476 44.491C52.74 44.5986 52.6323 44.7063 52.5247 44.8139C52.4171 44.9215 52.3094 44.9215 52.0942 44.9215H51.6636V44.3834H52.0942C52.2018 44.3834 52.2018 44.3834 52.3094 44.2757C52.4171 44.2757 52.4171 44.1681 52.5247 44.0605C52.5247 43.9528 52.6323 43.8452 52.6323 43.7376L53.601 40.9391H54.1392L53.0629 44.0605Z" fill="#0F0D09"/>
<path id="Vector_14" d="M55.6464 44.9216C55.6464 44.9216 55.5388 44.8139 55.3235 44.7063C55.1083 44.5987 55.0006 44.3834 54.893 44.1681C54.7854 43.9529 54.6777 43.7376 54.6777 43.4147V42.3384C54.6777 42.0155 54.7854 41.8002 54.893 41.585C55.0006 41.3697 55.1083 41.1544 55.3235 41.0468C55.5388 40.9392 55.7541 40.8315 56.0769 40.8315C56.2922 40.8315 56.5075 40.8315 56.7227 40.9392C56.938 41.0468 57.0456 41.1544 57.1533 41.3697C57.2609 41.585 57.3685 41.6926 57.3685 42.0155H56.8304C56.8304 41.9079 56.7227 41.8002 56.6151 41.6926C56.5075 41.585 56.3998 41.4773 56.2922 41.4773C56.1846 41.4773 56.0769 41.3697 55.9693 41.3697C55.8617 41.3697 55.6464 41.3697 55.5388 41.4773C55.4312 41.585 55.3235 41.6926 55.2159 41.8002C55.1083 41.9079 55.1083 42.1231 55.1083 42.2308V43.3071C55.1083 43.5223 55.1083 43.63 55.2159 43.7376C55.3235 43.8452 55.3235 43.9529 55.5388 44.0605C55.6464 44.1681 55.7541 44.1681 55.9693 44.1681C56.0769 44.1681 56.1846 44.1681 56.2922 44.0605C56.3998 44.0605 56.5075 43.9529 56.6151 43.8452C56.7227 43.7376 56.7227 43.63 56.8304 43.5223H57.3685C57.3685 43.7376 57.2609 43.9529 57.1533 44.1681C57.0456 44.3834 56.8304 44.491 56.7227 44.5987C56.6151 44.7063 56.2922 44.7063 56.0769 44.7063C55.8617 44.9216 55.6464 44.9216 55.6464 44.9216Z" fill="#0F0D09"/>
<path id="Vector_15" d="M57.7988 41.0469H60.4896V41.585H57.7988V41.0469ZM58.8751 41.3698H59.4133V44.9216H58.8751V41.3698Z" fill="#0F0D09"/>
<path id="Vector_16" d="M61.0278 41.0469H61.566V44.9216H61.0278V41.0469ZM61.3507 42.8766H62.5347C62.6423 42.8766 62.7499 42.8766 62.8576 42.769C62.9652 42.6614 62.9652 42.6614 63.0728 42.5537C63.0728 42.4461 63.1805 42.3385 63.1805 42.2308C63.1805 42.1232 63.1805 42.0156 63.0728 41.9079C63.0728 41.8003 62.9652 41.6927 62.8576 41.6927C62.7499 41.585 62.6423 41.585 62.5347 41.585H61.3507V41.0469H62.5347C62.7499 41.0469 62.9652 41.0469 63.1805 41.1545C63.3957 41.2621 63.5034 41.3698 63.611 41.585C63.7186 41.8003 63.7186 42.0156 63.7186 42.2308C63.7186 42.4461 63.7186 42.6614 63.611 42.8766C63.5034 43.0919 63.3957 43.1995 63.1805 43.3071C62.9652 43.4148 62.8576 43.4148 62.5347 43.4148H61.3507V42.8766Z" fill="#0F0D09"/>
<path id="Vector_17" d="M66.8399 44.9216V41.9079L66.9475 42.0156L65.0101 44.9216H64.5796V41.0469H65.1177V44.0606H65.0101L66.9475 41.0469H67.378V44.9216H66.8399Z" fill="#0F0D09"/>
<path id="Vector_18" d="M69.531 41.0469H69.9616L71.3608 44.9216H70.8226L69.7463 41.8003L68.67 44.9216H68.1318L69.531 41.0469ZM68.7776 43.5224H70.8226V44.0606H68.7776V43.5224Z" fill="#0F0D09"/>
<path id="Vector_19" d="M71.8989 44.3835C72.0066 44.3835 72.2218 44.3835 72.2218 44.2758C72.3294 44.1682 72.4371 44.0606 72.4371 43.9529C72.4371 43.8453 72.5447 43.63 72.5447 43.4148V41.1545H73.0829V43.4148C73.0829 43.7377 73.0829 44.0606 72.9752 44.2758C72.8676 44.4911 72.76 44.7064 72.6523 44.814C72.4371 44.9216 72.2218 45.0293 72.0066 45.0293V44.3835H71.8989ZM72.8676 41.0469H74.6974V41.585H72.8676V41.0469ZM74.4821 41.0469H75.0202V44.9216H74.4821V41.0469Z" fill="#0F0D09"/>
<path id="Vector_20" d="M76.0967 41.0469H76.6348V44.9216H76.0967V41.0469ZM76.4196 44.3835H77.6035C77.7112 44.3835 77.8188 44.3835 77.9264 44.2758C78.0341 44.2758 78.0341 44.1682 78.1417 44.0606C78.1417 43.9529 78.2493 43.8453 78.2493 43.7377C78.2493 43.63 78.2493 43.5224 78.1417 43.4148C78.1417 43.3071 78.0341 43.1995 77.9264 43.1995C77.8188 43.1995 77.7112 43.0919 77.6035 43.0919H76.4196V42.5537H77.6035C77.8188 42.5537 78.0341 42.5537 78.2493 42.6614C78.4646 42.769 78.5722 42.8766 78.6798 43.0919C78.7875 43.3071 78.7875 43.5224 78.7875 43.7377C78.7875 43.9529 78.7875 44.1682 78.6798 44.3835C78.5722 44.5987 78.4646 44.7064 78.2493 44.814C78.0341 44.9216 77.8188 44.9216 77.6035 44.9216H76.4196V44.3835Z" fill="#0F0D09"/>
<path id="Vector_21" d="M79.6479 41.0469H80.1861V44.9216H79.6479V41.0469ZM79.9708 42.769H82.1235V43.3071H79.9708V42.769ZM81.8006 41.0469H82.3387V44.9216H81.8006V41.0469Z" fill="#0F0D09"/>
<path id="Vector_22" d="M83.415 41.0469H83.9532V44.9216H83.415V41.0469ZM83.7379 44.3835H84.8143C84.9219 44.3835 85.0295 44.3835 85.1371 44.2758C85.2448 44.2758 85.2448 44.1682 85.3524 44.0606C85.3524 43.9529 85.46 43.8453 85.46 43.7377C85.46 43.63 85.46 43.5224 85.3524 43.4148C85.3524 43.3071 85.2448 43.1995 85.1371 43.1995C85.0295 43.1995 84.9219 43.0919 84.8143 43.0919H83.7379V42.5537H84.8143C85.0295 42.5537 85.2448 42.5537 85.46 42.6614C85.6753 42.769 85.7829 42.8766 85.8906 43.0919C85.9982 43.3071 85.9982 43.5224 85.9982 43.7377C85.9982 43.9529 85.9982 44.1682 85.8906 44.3835C85.7829 44.5987 85.6753 44.7064 85.46 44.814C85.2448 44.9216 85.0295 44.9216 84.8143 44.9216H83.7379V44.3835ZM86.9669 44.9216H86.4287V41.0469H86.9669V44.9216Z" fill="#0F0D09"/>
<path id="Vector_23" d="M88.1514 41.0469H88.6895V44.9216H88.1514V41.0469ZM88.3666 41.0469H90.5193V41.585H88.3666V41.0469ZM88.3666 42.769H90.304V43.3071H88.3666V42.769ZM88.3666 44.3835H90.5193V44.9216H88.3666V44.3835Z" fill="#0F0D09"/>
<path id="Vector_24" d="M92.5635 41.0469H93.1016V44.9216H92.5635V41.0469ZM92.8864 41.0469H95.039V41.585H92.8864V41.0469ZM94.7161 41.0469H95.2543V44.9216H94.7161V41.0469Z" fill="#0F0D09"/>
<path id="Vector_25" d="M97.4075 41.0469H97.838L99.2373 44.9216H98.6991L97.6228 41.8003L96.5465 44.9216H96.0083L97.4075 41.0469ZM96.6541 43.5224H98.6991V44.0606H96.6541V43.5224Z" fill="#0F0D09"/>
<path id="Vector_26" d="M99.9912 41.0469H100.529V44.9216H99.9912V41.0469ZM100.206 42.8766H101.39C101.498 42.8766 101.606 42.8766 101.713 42.769C101.821 42.6614 101.821 42.6614 101.929 42.5537C101.929 42.4461 102.036 42.3385 102.036 42.2308C102.036 42.1232 102.036 42.0156 101.929 41.9079C101.929 41.8003 101.821 41.6927 101.713 41.6927C101.606 41.585 101.498 41.585 101.39 41.585H100.206V41.0469H101.39C101.606 41.0469 101.821 41.0469 102.036 41.1545C102.251 41.2621 102.359 41.3698 102.467 41.585C102.574 41.8003 102.574 42.0156 102.574 42.2308C102.574 42.4461 102.574 42.6614 102.467 42.8766C102.359 43.0919 102.251 43.1995 102.036 43.3071C101.821 43.4148 101.713 43.4148 101.39 43.4148H100.206V42.8766Z" fill="#0F0D09"/>
<path id="Vector_27" d="M103.435 41.0469H103.973V44.9216H103.435V41.0469ZM103.758 42.769H104.942V43.3071H103.758V42.769ZM104.404 43.1995L104.834 42.8766L106.341 44.814H105.588L104.404 43.1995ZM104.404 42.769L105.48 41.0469H106.126L104.619 43.1995L104.404 42.769Z" fill="#0F0D09"/>
<path id="Vector_28" d="M109.354 44.9216V41.9079L109.462 42.0156L107.524 44.9216H107.094V41.0469H107.632V44.0606H107.524L109.462 41.0469H109.892V44.9216H109.354Z" fill="#0F0D09"/>
</g>
</g>
</g>
</g>
</g>
</svg>
