<svg width="245" height="65" viewBox="0 0 245 65" fill="none" xmlns="http://www.w3.org/2000/svg">
<g id="logo frame">
<g id="logo &#208;&#164;&#208;&#176;&#208;&#186;&#209;&#130; &#208;&#186;&#208;&#190;&#209;&#130;&#209;&#130;&#208;&#181;&#208;&#180;&#208;&#182;&#208;&#189;&#209;&#139;&#208;&#181; &#208;&#191;&#208;&#190;&#209;&#129;&#208;&#181;&#208;&#187;&#208;&#186;&#208;&#184;">
<g id="logo &#208;&#164;&#208;&#176;&#208;&#186;&#209;&#130; &#208;&#186;&#208;&#190;&#209;&#130;&#209;&#130;&#208;&#181;&#208;&#180;&#208;&#182;&#208;&#189;&#209;&#139;&#208;&#181; &#208;&#191;&#208;&#190;&#209;&#129;&#208;&#181;&#208;&#187;&#208;&#186;&#208;&#184;_2">
<g id="Group">
<path id="Vector" d="M16.2123 16C20.0774 17.2884 28.9888 20.402 28.9888 20.402V32.5344V45.3109C28.9888 45.3109 19.9701 48.1024 16.2123 49.1761C16.1049 47.995 15.9975 45.8477 15.8902 42.8415C15.9975 42.8415 15.9975 42.7341 15.9975 42.7341C19.1111 42.5194 21.4732 41.6605 23.0837 40.2647C24.6942 38.8689 25.5531 36.5069 25.5531 33.3933C25.5531 30.1723 24.6942 27.8103 22.9763 26.4145C21.3658 25.0187 19.0038 24.1598 15.8902 24.0524H15.7828C15.8902 19.9725 16.1049 17.181 16.2123 16ZM12.6692 49.1761C8.804 47.995 0 45.3109 0 45.3109V32.5344V20.402C0 20.402 8.69664 17.3958 12.6692 16C12.7765 17.181 12.8839 20.0799 13.0986 24.0524H12.6692C9.55557 24.2672 7.19352 25.0187 5.69039 26.5219C4.0799 28.025 3.32834 30.2797 3.32834 33.3933C3.32834 36.6143 4.18727 38.8689 5.79776 40.3721C7.40825 41.7678 9.7703 42.6267 12.9913 42.8415C12.8839 45.8477 12.7765 47.995 12.6692 49.1761ZM13.0986 25.7703C13.0986 27.9176 13.206 30.2797 13.206 32.8564C13.206 36.0774 13.206 38.8689 13.0986 41.231C10.844 41.1236 9.34083 40.3721 8.37454 39.2984C7.30088 38.1174 6.76405 36.1848 6.76405 33.5006C6.76405 30.8165 7.30088 28.9913 8.37454 27.8103C9.23347 26.6292 10.7366 25.8777 13.0986 25.7703ZM22.2247 33.3933C22.2247 36.0774 21.6879 38.01 20.5069 39.191C19.648 40.1573 17.608 40.9089 15.7828 41.231C15.6754 38.8689 15.6754 36.0774 15.6754 32.8564C15.6754 30.2797 15.6754 27.8103 15.7828 25.7703C17.7154 25.985 19.5406 26.6292 20.5069 27.7029C21.5805 28.7765 22.1174 30.7091 22.2247 33.3933Z" fill="#C51724"/>
</g>
<g id="Group_2">
<g id="Group_3">
<g id="Group_4">
<path id="Vector_2" d="M44.6642 37.7952H41.2285V36.1848C36.0749 35.7553 33.7129 33.2859 33.7129 28.4544C33.7129 23.6229 36.0749 21.1535 41.1211 20.7241V19.2209H44.6642V20.7241C49.8178 21.1535 52.2872 23.6229 52.2872 28.4544C52.2872 33.2859 49.9251 35.6479 44.7716 36.1848C44.7716 36.2921 44.7716 36.5069 44.7716 36.7216C44.7716 36.9363 44.7716 37.1511 44.8789 37.3658L44.6642 37.7952ZM41.1211 22.8714C38.3296 23.3009 37.1486 25.0187 37.1486 28.4544C37.1486 31.8901 38.3296 33.608 41.2285 34.0374V26.4145C41.2285 25.2334 41.1211 24.0524 41.1211 22.8714ZM44.4495 22.8714C44.4495 24.9113 44.3421 26.8439 44.3421 28.7765C44.3421 30.6017 44.3421 32.3196 44.4495 34.0374C47.3484 33.608 48.5294 31.9975 48.5294 28.4544C48.5294 24.9113 47.3484 23.3009 44.4495 22.8714Z" fill="#333333"/>
</g>
<path id="Vector_3" d="M71.6133 37.7952H67.6407L67.5334 37.4732C67.2113 36.0774 66.245 33.1785 65.6008 31.568H59.9104L57.6557 37.7952H54.7568L55.0789 37.1511C56.4747 34.3595 61.6283 19.7578 61.6283 19.543L61.7356 19.2209H64.8492L64.9566 19.543C65.8155 22.4419 69.7881 34.2522 71.1838 37.1511L71.6133 37.7952ZM60.7693 29.206H64.8492C64.7419 28.7765 64.5271 28.347 64.4198 27.9176C63.9903 26.4145 63.3461 24.5892 62.8093 23.1935L60.7693 29.206Z" fill="#333333"/>
<g id="Group_5">
<path id="Vector_4" d="M90.8309 37.7953H86.5363L86.4289 37.6879C85.9995 37.2584 85.7847 36.9363 85.0332 35.7553C84.7111 35.2185 84.389 34.6816 84.0669 34.1448C83.7448 33.608 83.4227 33.0712 83.1006 32.5343L82.9932 32.3196C82.2416 31.0312 80.7385 28.6692 79.3428 28.2397H79.2354C79.2354 28.4544 79.2354 28.6692 79.2354 28.8839C79.2354 31.7828 79.2354 34.6816 79.6649 37.3658L79.7722 37.7953H76.1218V26.4145C76.1218 24.3745 76.0144 22.0125 75.6923 19.6504L75.585 19.1136H79.4501V19.543C79.4501 20.1872 79.4501 20.9388 79.3428 21.583C79.3428 23.4082 79.2354 25.2334 79.2354 27.166H79.3428C81.2754 26.5218 84.6037 21.9051 84.8184 19.543V19.221H88.1468L87.932 19.7578C87.5026 20.7241 87.2878 21.2609 86.6436 22.4419C85.3553 24.6966 84.1742 26.3071 83.1006 27.2734C84.1742 28.1323 84.9258 29.3133 86.2142 31.2459C86.5363 31.7828 86.9657 32.5343 87.5026 33.2859C88.5762 34.8964 89.5425 36.2921 90.2941 37.1511L90.8309 37.7953Z" fill="#333333"/>
</g>
<g id="Group_6">
<path id="Vector_5" d="M101.353 37.6879H97.7023V26.4145C97.7023 24.804 97.5949 23.1935 97.4876 21.4757H96.6286C95.555 21.4757 94.4813 21.5831 92.8708 21.9052L92.334 22.0125V19.221H105.969L105.862 22.0125L105.433 21.9052C104.037 21.5831 102.856 21.4757 101.675 21.4757H100.923C100.923 22.0125 100.923 22.5494 100.923 23.0862C100.923 25.0188 100.816 26.844 100.816 28.6692C100.816 31.5681 100.816 34.3596 101.245 37.1511L101.353 37.6879Z" fill="#333333"/>
</g>
</g>
<path id="Vector_6" d="M109.942 35.7553C109.942 36.9363 108.976 37.9026 107.795 37.9026C106.614 37.9026 105.647 36.9363 105.647 35.7553C105.647 34.5743 106.614 33.608 107.795 33.608C108.976 33.608 109.942 34.5743 109.942 35.7553Z" fill="#333333"/>
<path id="Vector_7" d="M109.835 45.0962C109.727 44.5594 109.727 43.8078 109.727 43.0563C109.727 42.3047 109.727 41.5531 109.727 40.9089H108.868C108.976 41.231 108.976 41.4458 108.976 41.7679L107.258 43.4857C107.258 42.6268 107.258 41.5531 107.258 40.9089H106.399C106.506 41.6605 106.506 42.5194 106.506 42.9489V44.9889H107.365C107.365 44.7741 107.258 44.452 107.258 44.1299L108.976 42.4121V42.9489V44.9889H109.835V45.0962ZM103.071 45.0962C102.856 44.1299 102.963 42.1973 102.963 41.0163H102.104C102.212 41.7679 102.212 42.6268 102.212 43.0563V45.0962H103.071ZM105.54 45.0962C105.111 44.452 104.252 43.0563 103.822 42.8415C104.252 42.5194 104.789 41.8752 105.111 41.0163H104.466C104.359 41.6605 103.608 42.6268 103.178 42.9489C103.608 43.271 104.359 44.5594 104.574 45.0962H105.54ZM101.138 45.0962C101.031 44.452 101.031 43.8078 101.031 43.0563C101.031 42.3047 101.031 41.6605 101.031 40.9089H98.6687C98.6687 41.5531 98.7761 44.2373 98.0245 44.5594C97.9172 44.5594 97.8098 44.5594 97.7024 44.5594V45.0962C97.8098 45.0962 97.9172 45.0962 98.0245 45.0962C98.7761 44.9889 98.9908 44.1299 99.0982 43.271C99.2056 42.6268 99.2056 41.8752 99.2056 41.4458H100.279C100.279 41.8752 100.279 42.3047 100.279 42.7342V45.0962H101.138ZM96.3067 42.3047H94.4814C94.5888 41.6605 94.9109 41.231 95.5551 41.231C96.1993 41.231 96.3067 41.7679 96.3067 42.3047ZM97.0582 42.7342C97.0582 41.6605 96.8435 40.8016 95.5551 40.8016C94.1594 40.8016 93.7299 41.7679 93.7299 42.9489C93.7299 44.1299 94.1594 45.0962 95.4477 45.0962C95.9846 45.0962 96.414 44.9889 96.9509 44.6668L96.8435 44.2373C96.5214 44.452 96.0919 44.6668 95.6625 44.6668C94.5888 44.6668 94.3741 43.8078 94.3741 42.9489C94.3741 42.8415 94.3741 42.7342 94.3741 42.6268H97.0582V42.7342ZM92.871 44.7741L92.7636 44.3447C92.4415 44.5594 92.1194 44.6668 91.6899 44.6668C90.6163 44.6668 90.5089 43.8078 90.5089 42.9489C90.5089 42.1973 90.6163 41.231 91.5826 41.231C91.9047 41.231 92.2268 41.3384 92.4415 41.5531L92.7636 41.0163C92.4415 40.8016 92.2268 40.6942 91.5826 40.6942C90.2942 40.6942 89.7573 41.5531 89.7573 42.8415C89.7573 44.0226 90.1868 44.9889 91.4752 44.9889C92.1194 45.2036 92.3341 44.9888 92.871 44.7741ZM88.2542 42.9489C88.2542 44.1299 87.9321 44.6668 87.1806 44.6668C86.429 44.6668 86.1069 44.1299 86.1069 42.9489C86.1069 41.7679 86.429 41.231 87.1806 41.231C87.9321 41.231 88.2542 41.7679 88.2542 42.9489ZM89.0058 42.9489C89.0058 41.5531 88.3616 40.8016 87.1806 40.8016C85.8922 40.8016 85.3553 41.5531 85.3553 42.9489C85.3553 44.3447 85.9995 45.0962 87.1806 45.0962C88.3616 45.2036 89.0058 44.452 89.0058 42.9489ZM84.3891 45.0962C84.2817 44.5594 84.2817 43.8078 84.2817 43.0563C84.2817 42.3047 84.2817 41.5531 84.2817 40.9089H80.9533C81.0607 41.6605 81.0607 42.5194 81.0607 42.9489V44.9889H81.9196C81.8123 44.1299 81.8123 42.5194 81.8123 41.3384H83.4228C83.5301 41.9826 83.4228 42.6268 83.4228 42.9489V44.9889H84.3891V45.0962ZM76.9808 42.3047H75.1556C75.263 41.6605 75.5851 41.231 76.2292 41.231C76.7661 41.231 76.9808 41.7679 76.9808 42.3047ZM77.625 42.7342C77.625 41.6605 77.4103 40.8016 76.1219 40.8016C74.7261 40.8016 74.2967 41.7679 74.2967 42.9489C74.2967 44.1299 74.7261 45.0962 76.0145 45.0962C76.5513 45.0962 76.9808 44.9889 77.5176 44.6668L77.4103 44.2373C77.0882 44.452 76.6587 44.6668 76.2292 44.6668C75.1556 44.6668 74.9409 43.8078 74.9409 42.9489C74.9409 42.8415 74.9409 42.7342 74.9409 42.6268H77.625V42.7342ZM71.1831 43.8078C71.1831 44.452 70.7536 44.5594 70.3241 44.5594C70.1094 44.5594 70.1094 44.5594 69.7873 44.5594C69.7873 44.0226 69.6799 43.4857 69.6799 43.0563C70.002 43.0563 70.3241 43.0563 70.3241 43.0563C70.861 43.0563 71.1831 43.3784 71.1831 43.8078ZM71.9346 43.9152C71.9346 42.8415 71.2904 42.6268 70.3241 42.6268H69.7873V40.9089H68.9284C69.0357 41.4458 69.0357 42.09 69.0357 42.6268V44.9889H70.4315C71.183 45.0962 71.9346 44.7741 71.9346 43.9152ZM73.4377 45.0962C73.3304 44.452 73.3304 43.9152 73.3304 43.271C73.3304 42.5194 73.3304 41.7679 73.3304 41.0163H72.4714C72.5788 41.6605 72.5788 42.1973 72.5788 42.7342V45.0962H73.4377ZM67.64 45.0962C67.5326 44.5594 67.5326 43.8078 67.5326 43.0563C67.5326 42.3047 67.5326 41.5531 67.5326 40.9089H66.6737C66.781 41.4458 66.781 42.09 66.781 42.6268H65.0632C65.0632 41.9826 65.0632 41.4458 65.0632 40.9089H64.2043C64.3116 41.6605 64.3116 42.5194 64.3116 42.9489V44.9889H65.1706C65.0632 44.452 65.0632 43.8078 65.0632 43.0563H66.781V44.9889H67.64V45.0962ZM63.4527 45.0962C63.0232 44.452 62.4864 43.0563 62.0569 42.8415C62.4864 42.5194 62.5938 41.8752 62.9159 41.0163H62.2717C62.2717 41.4458 61.9496 42.3047 61.6275 42.7342H60.8759C60.8759 42.09 60.8759 41.5531 60.8759 41.0163H60.017C60.1244 41.5531 60.1244 42.1973 60.1244 42.7342H59.3728C59.0507 42.3047 58.7286 41.5531 58.7286 41.0163H57.977C58.2991 41.8752 58.4065 42.5194 58.836 42.8415C58.4065 43.1636 57.8697 44.5594 57.4402 45.0962H58.4065C58.6212 44.5594 58.9433 43.5931 59.2654 43.1636H60.1244V45.0962H60.9833C60.8759 44.5594 60.8759 43.9152 60.8759 43.1636H61.5201C61.9496 43.7005 62.2717 44.6668 62.4864 45.0962H63.4527ZM55.8297 44.5594H54.1119C54.6487 43.8078 54.6487 42.5194 54.6487 41.8752V41.3384H55.7224C55.8297 41.8752 55.7224 42.6268 55.7224 42.9489V44.5594H55.8297ZM57.2255 44.5594H56.5813C56.4739 43.4857 56.5813 41.8752 56.5813 40.9089H54.1119C54.1119 41.231 54.1119 41.5531 54.1119 41.8752C54.1119 42.4121 54.0045 43.9152 53.4677 44.5594H53.0382L53.1456 46.0625H53.4677L53.6824 44.9889H56.4739V46.0625H56.9034L57.2255 44.5594ZM51.9646 42.3047H50.1393C50.2467 41.6605 50.5688 41.231 51.213 41.231C51.7498 41.231 51.9646 41.7679 51.9646 42.3047ZM52.6087 42.7342C52.6087 41.6605 52.394 40.8016 51.1056 40.8016C49.7099 40.8016 49.2804 41.7679 49.2804 42.9489C49.2804 44.1299 49.7099 45.0962 50.9983 45.0962C51.5351 45.0962 51.9646 44.9889 52.5014 44.6668L52.394 44.2373C52.0719 44.452 51.6425 44.6668 51.213 44.6668C50.1393 44.6668 49.9246 43.8078 49.9246 42.9489C49.9246 42.8415 49.9246 42.7342 49.9246 42.6268H52.6087V42.7342ZM48.6362 40.9089H45.5226V41.4458C45.8447 41.3384 46.0594 41.3384 46.3815 41.3384H46.7036C46.811 41.9826 46.7036 42.6268 46.7036 42.9489V44.9889H47.5625C47.4552 44.1299 47.4552 42.5194 47.4552 41.3384H47.7773C47.992 41.3384 48.3141 41.4458 48.5288 41.4458L48.6362 40.9089ZM44.8784 40.9089H41.7648V41.4458C42.0869 41.3384 42.3016 41.3384 42.6237 41.3384H42.9458C43.0532 41.9826 42.9458 42.6268 42.9458 42.9489V44.9889H43.8047C43.6974 44.1299 43.6974 42.5194 43.6974 41.3384H44.0195C44.2342 41.3384 44.5563 41.4458 44.771 41.4458L44.8784 40.9089ZM40.369 42.9489C40.369 44.1299 40.0469 44.6668 39.2954 44.6668C38.5438 44.6668 38.2217 44.1299 38.2217 42.9489C38.2217 41.7679 38.5438 41.231 39.2954 41.231C40.0469 41.231 40.369 41.7679 40.369 42.9489ZM41.1206 42.9489C41.1206 41.5531 40.4764 40.8016 39.2954 40.8016C38.007 40.8016 37.4702 41.5531 37.4702 42.9489C37.4702 44.3447 38.1143 45.0962 39.2954 45.0962C40.4764 45.2036 41.1206 44.452 41.1206 42.9489ZM34.5713 45.0962C34.3565 44.1299 34.4639 42.1973 34.4639 41.0163H33.605C33.7123 41.7679 33.7123 42.6268 33.7123 43.0563V45.0962H34.5713ZM37.0407 45.0962C36.6112 44.452 35.7523 43.0563 35.3228 42.8415C35.7523 42.5194 36.2891 41.8752 36.6112 41.0163H35.967C35.8597 41.6605 35.1081 42.6268 34.6786 42.9489C35.1081 43.271 35.8597 44.5594 36.0744 45.0962H37.0407Z" fill="#333333"/>
</g>
</g>
</g>
</g>
</svg>
