<svg width="245" height="65" viewBox="0 0 245 65" fill="none" xmlns="http://www.w3.org/2000/svg">
<g id="logo frame">
<g id="logo &#208;&#147;&#209;&#128;&#208;&#184;&#208;&#189;&#208;&#187;&#208;&#176;&#208;&#185;&#208;&#189;">
<g id="logo &#208;&#147;&#209;&#128;&#208;&#184;&#208;&#189;&#208;&#187;&#208;&#176;&#208;&#185;&#208;&#189;_2">
<path id="Vector" d="M70.9109 30.8342C70.9109 30.8342 57.5927 14.5603 53.2733 11.699C51.4736 10.5365 48.594 9.73179 46.4343 10.0895C35.9057 11.7884 38.7853 14.2921 38.7853 14.2921C38.7853 14.2921 43.4647 19.0312 46.7942 22.9655C50.1238 26.8999 51.7435 28.6882 51.7435 28.6882L70.9109 30.8342Z" fill="#2A963E"/>
<path id="Vector_2" d="M0.090332 30.4765C0.090332 30.4765 16.0181 16.1698 20.3375 12.6825C23.6671 10 26.9066 10.0894 26.9066 10.0894C26.9066 10.0894 47.0639 10 47.9637 10C48.8636 10.0894 49.7635 10.2683 49.7635 10.2683C49.7635 10.2683 44.9042 9.91058 41.7546 12.146C40.9447 12.6825 39.9548 13.3979 38.875 14.2026C35.7254 16.6169 31.316 20.3724 29.3363 22.3396C24.9269 26.8104 22.4073 29.1353 22.4073 29.1353L0.090332 30.4765Z" fill="#97CA51"/>
<g id="Group">
<path id="Vector_3" d="M60.8313 34.0532C60.8313 34.0532 59.5715 31.9966 58.5817 32.086C57.5918 32.2649 57.8618 32.4437 57.8618 32.4437C57.8618 32.4437 58.3117 32.8908 58.5817 33.2484C58.8516 33.6061 59.0316 33.785 59.0316 33.785L60.8313 34.0532Z" fill="#231F20"/>
<path id="Vector_4" d="M54.2622 34.0532C54.2622 34.0532 55.702 32.7119 56.1519 32.4437C56.4219 32.1754 56.7819 32.1754 56.7819 32.1754H58.6716H58.8516C58.8516 32.1754 58.4016 32.1754 58.1317 32.3543C58.0417 32.4437 57.9517 32.4437 57.8617 32.5331C57.5918 32.7119 57.1418 33.0696 56.9618 33.2484C56.5119 33.6955 56.3319 33.8743 56.3319 33.8743L54.2622 34.0532Z" fill="#909295"/>
</g>
<path id="Vector_5" d="M39.1448 46.4822H0.180176V48.0917H39.1448V46.4822Z" fill="#97CA51"/>
<path id="Vector_6" d="M71.0001 46.4822H39.1445V48.0917H71.0001V46.4822Z" fill="#2A963E"/>
<path id="Vector_7" d="M37.9747 21.7137H35.1851V24.4856H37.9747V21.7137Z" fill="#7BC043"/>
<path id="Vector_8" d="M41.2149 21.7137H38.4253V24.4856H41.2149V21.7137Z" fill="#2A963E"/>
<path id="Vector_9" d="M37.9747 24.9327H35.1851V27.7046H37.9747V24.9327Z" fill="#7BC043"/>
<path id="Vector_10" d="M41.2149 24.9327H38.4253V27.7046H41.2149V24.9327Z" fill="#2A963E"/>
<path id="Vector_11" d="M2.52017 44.3363H0.900391V37.7194L3.24007 35.3945H7.28951V36.9146H2.52017V44.3363Z" fill="#231F20"/>
<path id="Vector_12" d="M8.2793 41.6536C8.2793 40.7594 8.54926 40.1335 8.9992 39.6864C9.53912 39.2393 10.169 39.0605 11.0689 39.0605H12.9587C13.2286 39.0605 13.4986 38.9711 13.6786 38.7923C13.8585 38.6134 13.9485 38.3452 13.9485 38.0769C13.9485 37.8087 13.8585 37.5404 13.6786 37.3616C13.4986 37.1828 13.2286 37.0933 12.9587 37.0933H8.2793V35.5732H12.7787C13.2286 35.5732 13.6786 35.6627 14.0385 35.7521C14.3985 35.9309 14.6684 36.1097 14.9384 36.2886C15.2083 36.4674 15.2983 36.8251 15.4783 37.0933C15.5683 37.451 15.6583 37.7193 15.6583 38.0769C15.6583 38.3452 15.5683 38.7028 15.4783 38.9711C15.3883 39.2393 15.2083 39.597 15.0284 39.7758C14.7584 40.0441 14.4884 40.2229 14.1285 40.4018C13.7685 40.5806 13.3186 40.67 12.7787 40.67H10.7989C10.529 40.67 10.259 40.7594 10.079 41.0277C9.89907 41.2959 9.89907 41.3854 9.89907 41.6536V44.3361H8.2793V41.6536Z" fill="#231F20"/>
<path id="Vector_13" d="M16.2874 35.3945H17.9972V42.0114C17.9972 42.5479 18.0871 42.7267 18.2671 42.7267C18.4471 42.7267 18.4471 42.7267 18.5371 42.6373C18.6271 42.5479 18.7171 42.3691 18.7171 42.1902L20.5168 36.7358C20.6968 36.2887 20.8768 35.931 21.2367 35.7522C21.5967 35.4839 22.0466 35.3945 22.4965 35.3945C22.8565 35.3945 22.9465 35.4839 22.9465 35.4839C23.2164 35.5734 23.4864 35.6628 23.6664 35.931C23.8464 36.1099 24.0263 36.3781 24.1163 36.6464C24.2063 36.9146 24.2963 37.3617 24.2963 37.7194V44.5151H22.5865V37.7194C22.5865 37.1829 22.4066 36.9146 22.3166 36.9146C22.1366 36.9146 22.0466 37.004 21.9566 37.0935C21.8666 37.1829 21.7766 37.3617 21.7766 37.5405L19.9769 42.995C19.7969 43.4421 19.6169 43.7997 19.167 43.9786C18.807 44.2468 18.5371 44.3363 18.0871 44.3363C17.7272 44.3363 17.6372 44.3363 17.4572 44.2468C17.1873 44.1574 16.9173 43.9786 16.7373 43.7997C16.5574 43.6209 16.3774 43.3527 16.2874 43.0844C16.1974 42.8162 16.1074 42.5479 16.1074 42.1902V35.3945H16.2874Z" fill="#231F20"/>
<path id="Vector_14" d="M53.8128 35.3945H55.5226V42.0113C55.5226 42.5478 55.6125 42.7267 55.7925 42.7267C55.9725 42.7267 55.9725 42.7267 56.0625 42.6373C56.1525 42.5478 56.2425 42.369 56.2425 42.1902L58.0422 36.7357C58.2222 36.2886 58.4022 35.931 58.7621 35.7521C59.1221 35.4839 59.572 35.3945 60.0219 35.3945C60.3819 35.3945 60.4719 35.4839 60.4719 35.4839C60.7418 35.5733 61.0118 35.6627 61.1918 35.931C61.3717 36.1098 61.5517 36.3781 61.6417 36.6463C61.7317 36.9146 61.8217 37.3616 61.8217 37.7193V44.515H60.1119V37.7193C60.1119 37.1828 59.9319 36.9146 59.842 36.9146C59.662 36.9146 59.572 37.004 59.482 37.0934C59.392 37.1828 59.302 37.3616 59.302 37.5405L57.5023 42.9949C57.3223 43.442 57.1423 43.7997 56.6924 43.9785C56.3324 44.2468 56.0625 44.3362 55.6125 44.3362C55.2526 44.3362 55.1626 44.3362 54.9826 44.2468C54.7127 44.1574 54.4427 43.9785 54.2627 43.7997C54.0828 43.6209 53.9028 43.3526 53.8128 43.0843C53.7228 42.8161 53.6328 42.5478 53.6328 42.1902V35.3945H53.8128Z" fill="#231F20"/>
<path id="Vector_15" d="M3.24007 36.9147C2.79013 36.9147 2.61015 37.1829 2.61015 37.7194V44.3363H0.900391V37.5406C0.900391 37.1829 0.990378 36.9147 1.08037 36.6464C1.17035 36.3782 1.35033 36.1099 1.5303 35.9311C1.71028 35.7523 1.98024 35.5734 2.2502 35.484C2.52017 35.3946 2.79013 35.3052 3.15008 35.3052C3.69001 35.3946 3.42004 36.9147 3.24007 36.9147Z" fill="#231F20"/>
<path id="Vector_16" d="M38.9649 37.004C38.8749 37.004 38.8749 37.004 38.7849 37.0934C38.6949 37.0934 38.6949 37.1828 38.6049 37.2722L36.0853 44.4256H34.3755L37.1651 36.5569C37.2551 36.1992 37.5251 35.8416 37.795 35.6627C38.065 35.4839 38.4249 35.3945 38.8749 35.3945C39.3248 35.3945 39.6848 35.4839 39.9547 35.6627C40.2247 35.8416 40.4946 36.1098 40.5846 36.5569L43.3742 44.4256H41.6645L39.1448 37.2722C39.3248 37.0934 39.1448 37.004 38.9649 37.004Z" fill="#231F20"/>
<path id="Vector_17" d="M51.5627 44.3362L49.0431 37.2722C49.0431 37.1828 48.9531 37.0934 48.8631 37.0934C48.7731 37.0934 48.7731 37.004 48.6831 37.004C48.5031 37.004 48.4132 37.0934 48.3232 37.2722L45.8035 44.3362H44.0938L46.8834 36.5569C46.9734 36.1992 47.2433 35.8416 47.5133 35.6627C47.7832 35.4839 48.1432 35.3945 48.5931 35.3945C48.9531 35.3945 49.313 35.4839 49.673 35.6627C49.9429 35.8416 50.2129 36.1098 50.3029 36.5569L53.0925 44.3362H51.5627Z" fill="#231F20"/>
<path id="Vector_18" d="M69.3802 40.5808H65.2407V44.2469H63.7109V35.3052H65.2407V38.9713H69.3802V35.3052H70.9099V44.2469H69.3802V40.5808Z" fill="#231F20"/>
<path id="Vector_19" d="M32.0354 40.6701H27.896V44.3362H26.3662V35.3945H27.896V39.0606H32.0354V35.3945H33.5652V44.3362H32.0354V40.6701Z" fill="#231F20"/>
<path id="Vector_20" d="M9.80909 35.3945H8.2793V44.3362H9.80909V35.3945Z" fill="#231F20"/>
<path id="Vector_21" d="M51.3833 41.0278H46.5239V42.4584H51.3833V41.0278Z" fill="#231F20"/>
<g id="Group_2">
<path id="Vector_22" d="M2.8796 53.7251C2.69963 53.8145 2.33968 53.9039 1.88974 53.9039C0.719901 53.9039 0 53.1886 0 52.1156C0 51.0425 0.719901 50.2378 1.97973 50.2378C2.24969 50.2378 2.60964 50.3272 2.78961 50.4166L2.69963 51.132C2.60964 51.0425 2.33968 51.0425 2.06971 51.0425C1.52979 51.0425 1.07985 51.4896 1.16984 52.0261C1.16984 52.6521 1.61978 53.0097 2.1597 53.0097C2.42966 53.0097 2.60964 53.0097 2.78961 52.9203L2.8796 53.7251Z" fill="#231F20"/>
<path id="Vector_23" d="M4.31945 52.3837C4.31945 52.8308 4.76939 53.0097 5.30932 53.0097C5.66927 53.0097 6.02922 52.9203 6.29918 52.8308L6.47916 53.5462C6.1192 53.725 5.66927 53.725 5.21933 53.725C4.04949 53.725 3.32959 53.0097 3.32959 51.9367C3.32959 51.0425 3.86952 50.0589 5.12934 50.0589C6.29918 50.0589 6.65913 50.9531 6.65913 51.7578C6.65913 51.9367 6.65913 52.1155 6.65913 52.2049H4.31945V52.3837ZM5.66927 51.6684C5.66927 51.4002 5.57928 50.9531 5.03935 50.9531C4.58942 50.9531 4.40944 51.4002 4.31945 51.6684H5.66927Z" fill="#231F20"/>
<path id="Vector_24" d="M7.37939 51.4896C7.37939 51.0425 7.37939 50.5955 7.37939 50.3272H8.36926L8.45925 50.7743C8.72921 50.4166 9.08916 50.2378 9.62908 50.2378C10.439 50.2378 11.0689 50.8637 11.0689 52.0261C11.0689 53.278 10.259 53.9039 9.44911 53.9039C8.99917 53.9039 8.72921 53.7251 8.54923 53.5462V55.2452H7.37939V51.4896ZM8.45925 52.2944C8.45925 52.3838 8.45925 52.4732 8.45925 52.5626C8.54923 52.8309 8.8192 53.0991 9.08916 53.0991C9.5391 53.0991 9.80906 52.7415 9.80906 52.1156C9.80906 51.579 9.5391 51.132 9.08916 51.132C8.8192 51.132 8.54923 51.4002 8.45925 51.6685C8.45925 51.7579 8.45925 51.7579 8.45925 51.8473V52.2944Z" fill="#231F20"/>
<path id="Vector_25" d="M11.7886 50.3272C12.0585 50.3272 12.6884 50.2378 13.2284 50.2378C13.8583 50.2378 14.9381 50.3272 14.9381 51.132C14.9381 51.5791 14.5782 51.8473 14.2182 51.8473C14.7582 51.9367 15.1181 52.205 15.1181 52.7415C15.1181 53.7251 13.7683 53.8145 13.0484 53.8145C12.5985 53.8145 12.0585 53.8145 11.7886 53.7251V50.3272ZM12.8684 53.1886C12.9584 53.1886 13.0484 53.1886 13.2284 53.1886C13.5883 53.1886 13.9483 53.0991 13.9483 52.7415C13.9483 52.4732 13.6783 52.2944 13.1384 52.2944H12.7784V53.1886H12.8684ZM12.8684 51.6685H13.1384C13.5883 51.6685 13.8583 51.5791 13.8583 51.3108C13.8583 51.0425 13.6783 50.9531 13.2284 50.9531C13.0484 50.9531 12.9584 50.9531 12.8684 50.9531V51.6685Z" fill="#231F20"/>
<path id="Vector_26" d="M16.9176 50.3272V51.4002C16.9176 51.9367 16.9176 52.3838 16.8276 52.8309C17.0076 52.4732 17.0976 52.1156 17.1876 51.8473L17.9075 50.3272H19.2573V53.8145H18.2674V52.7415C18.2674 52.205 18.2674 51.9367 18.3574 51.2214C18.1774 51.579 18.1774 51.8473 17.9974 52.205C17.8175 52.6521 17.5475 53.278 17.2775 53.8145H15.9277V50.3272H16.9176Z" fill="#231F20"/>
<path id="Vector_27" d="M22.947 53.7251C22.767 53.8145 22.4071 53.904 21.9571 53.904C20.7873 53.904 20.0674 53.1886 20.0674 52.1156C20.0674 51.132 20.7873 50.2379 22.0471 50.2379C22.3171 50.2379 22.677 50.3273 22.857 50.4167L22.767 51.132C22.677 51.0426 22.4071 51.0426 22.1371 51.0426C21.5972 51.0426 21.1472 51.4897 21.2372 52.0262C21.2372 52.6521 21.6872 53.0098 22.2271 53.0098C22.497 53.0098 22.677 53.0098 22.857 52.9204L22.947 53.7251Z" fill="#231F20"/>
<path id="Vector_28" d="M24.7464 50.3271V51.579H25.8262V50.3271H26.9061V53.8144H25.8262V52.4732H24.7464V53.8144H23.6665V50.3271H24.7464Z" fill="#231F20"/>
<path id="Vector_29" d="M29.8757 53.8145L29.7857 53.4568C29.5157 53.7251 29.1558 53.9039 28.7958 53.9039C28.0759 53.9039 27.626 53.3674 27.626 52.8309C27.626 51.9367 28.4359 51.4896 29.6957 51.4896V51.4002C29.6957 51.2214 29.6057 50.9531 29.0658 50.9531C28.7058 50.9531 28.3459 51.0425 28.0759 51.2214L27.8959 50.506C28.1659 50.3272 28.6158 50.2378 29.2458 50.2378C30.4156 50.2378 30.7755 50.9531 30.7755 51.7579V52.9203C30.7755 53.278 30.7755 53.5462 30.8655 53.8145H29.8757ZM29.7857 52.1156C29.2458 52.1156 28.7958 52.205 28.7958 52.6521C28.7958 52.9203 28.9758 53.0991 29.2458 53.0991C29.5157 53.0991 29.7857 52.9203 29.7857 52.7415C29.7857 52.6521 29.7857 52.6521 29.7857 52.5626V52.1156Z" fill="#231F20"/>
<path id="Vector_30" d="M34.9153 53.8145H33.8354V52.4732H33.6555C33.3855 52.4732 33.2955 52.5626 33.1155 52.7415C32.9355 52.9203 32.8456 53.278 32.7556 53.5462C32.7556 53.6356 32.6656 53.7251 32.5756 53.8145H31.4058C31.4957 53.7251 31.5857 53.5462 31.5857 53.4568C31.6757 53.1886 31.8557 52.7415 32.1257 52.4732C32.2156 52.3838 32.3956 52.2944 32.5756 52.205C32.2156 52.205 31.6757 51.9367 31.6757 51.3108C31.6757 50.8637 31.9457 50.5955 32.3056 50.4166C32.6656 50.2378 33.1155 50.2378 33.5655 50.2378C34.1054 50.2378 34.5553 50.2378 34.9153 50.3272V53.8145ZM33.8354 50.9531C33.7454 50.9531 33.6555 50.9531 33.4755 50.9531C33.1155 50.9531 32.8456 51.132 32.8456 51.4002C32.8456 51.6685 33.2055 51.8473 33.4755 51.8473C33.6555 51.8473 33.7454 51.8473 33.8354 51.8473V50.9531Z" fill="#231F20"/>
<path id="Vector_31" d="M38.6946 50.3271V51.7578H38.7846L39.6845 50.3271H40.9443L39.6845 51.8472C40.1344 51.9367 40.4044 52.2943 40.5843 52.8308C40.6743 53.0991 40.8543 53.5462 41.0343 53.9038H39.8644C39.7744 53.725 39.6845 53.5462 39.5045 53.0991C39.3245 52.7414 39.1445 52.4732 38.7846 52.4732H38.6946V53.8144H37.6147V50.3271H38.6946Z" fill="#231F20"/>
<path id="Vector_32" d="M44.9942 52.0262C44.9942 53.278 44.0943 53.904 43.1044 53.904C42.1146 53.904 41.3047 53.1886 41.3047 52.1156C41.3047 50.9532 42.0246 50.2379 43.1944 50.2379C44.2743 50.2379 44.9942 50.9532 44.9942 52.0262ZM42.3845 52.0262C42.3845 52.6521 42.6545 53.0992 43.1044 53.0992C43.5544 53.0992 43.8243 52.6521 43.8243 52.0262C43.8243 51.4897 43.6444 50.9532 43.1044 50.9532C42.6545 50.9532 42.3845 51.4897 42.3845 52.0262Z" fill="#231F20"/>
<path id="Vector_33" d="M45.8035 50.3271H47.1533L47.5133 51.6684C47.6033 51.8472 47.6932 52.2049 47.7832 52.5626C47.8732 52.2943 47.9632 51.9367 48.0532 51.579L48.4131 50.3271H49.763L49.9429 53.8144H48.9531L48.8631 52.3837C48.8631 52.1155 48.8631 51.579 48.8631 51.1319C48.6831 51.579 48.6831 51.6684 48.5031 52.2943L48.0532 53.725H47.2433L46.7934 52.3837C46.7034 52.0261 46.6134 51.579 46.5234 51.2213C46.5234 51.6684 46.5234 52.1155 46.5234 52.4732L46.6134 53.8144H45.6235L45.8035 50.3271Z" fill="#231F20"/>
<path id="Vector_34" d="M54.2625 50.3271V53.8144H53.1826V51.1319H52.1028V53.8144H51.0229V50.3271H54.2625Z" fill="#231F20"/>
<path id="Vector_35" d="M57.2326 53.8145L57.1426 53.4568C56.8727 53.7251 56.5127 53.9039 56.1528 53.9039C55.4329 53.9039 54.9829 53.3674 54.9829 52.8309C54.9829 51.9367 55.7928 51.4896 57.0526 51.4896V51.4002C57.0526 51.2214 56.9626 50.9531 56.4227 50.9531C56.0628 50.9531 55.7028 51.0425 55.4328 51.2214L55.2529 50.506C55.5228 50.3272 55.9728 50.2378 56.6027 50.2378C57.7725 50.2378 58.1325 50.9531 58.1325 51.7579V52.9203C58.1325 53.278 58.1325 53.5462 58.2225 53.8145H57.2326ZM57.1426 52.1156C56.6027 52.1156 56.1528 52.205 56.1528 52.6521C56.1528 52.9203 56.3327 53.0991 56.6027 53.0991C56.8727 53.0991 57.1426 52.9203 57.1426 52.7415C57.1426 52.6521 57.1426 52.6521 57.1426 52.5626V52.1156Z" fill="#231F20"/>
<path id="Vector_36" d="M60.2019 50.3271V51.579H61.2818V50.3271H62.3616V53.8144H61.2818V52.4732H60.2019V53.8144H59.1221V50.3271H60.2019Z" fill="#231F20"/>
<path id="Vector_37" d="M64.4308 50.3271V51.4002C64.4308 51.9367 64.4308 52.3837 64.3408 52.8308C64.5208 52.4732 64.6108 52.1155 64.7007 51.8472L65.4206 50.3271H66.7705V53.8144H65.7806V52.7414C65.7806 52.2049 65.7806 51.9367 65.8706 51.2213C65.6906 51.579 65.6906 51.8472 65.5106 52.2049C65.3307 52.652 65.0607 53.2779 64.7907 53.8144H63.4409V50.3271H64.4308Z" fill="#231F20"/>
<path id="Vector_38" d="M70.9099 53.8145H69.8301V52.4732H69.6501C69.3801 52.4732 69.2901 52.5626 69.1102 52.7415C68.9302 52.9203 68.8402 53.278 68.7502 53.5462C68.7502 53.6356 68.6602 53.7251 68.5702 53.8145H67.4004C67.4904 53.7251 67.5804 53.5462 67.5804 53.4568C67.6704 53.1886 67.8503 52.7415 68.1203 52.4732C68.2103 52.3838 68.3902 52.2944 68.5702 52.205C68.2103 52.205 67.6703 51.9367 67.6703 51.3108C67.6703 50.8637 67.9403 50.5955 68.3003 50.4166C68.6602 50.2378 69.1102 50.2378 69.5601 50.2378C70.1 50.2378 70.55 50.2378 70.9099 50.3272V53.8145ZM69.8301 50.9531C69.7401 50.9531 69.6501 50.9531 69.4701 50.9531C69.1102 50.9531 68.8402 51.132 68.8402 51.4002C68.8402 51.6685 69.2001 51.8473 69.4701 51.8473C69.6501 51.8473 69.7401 51.8473 69.8301 51.8473V50.9531Z" fill="#231F20"/>
</g>
</g>
</g>
</g>
</svg>
